<svg width="381px" height="100px" viewBox="0 0 381 100" version="1.1" xmlns="http://www.w3.org/2000/svg" xmlns:xlink="http://www.w3.org/1999/xlink">
    <g id="Page-1" stroke="none" stroke-width="1" fill="none" fill-rule="evenodd">
        <g id="astro" fill="#17191E" fill-rule="nonzero">
            <path d="M25.7845,85.175 C21.2669,81.045 19.9481,72.368 21.8302,66.082 C25.0938,70.045 29.6158,71.301 34.2996,72.009 C41.5305,73.103 48.6318,72.694 55.3489,69.389 C56.1173,69.011 56.8275,68.507 57.6671,67.998 C58.2974,69.826 58.4614,71.672 58.2413,73.551 C57.706,78.127 55.4288,81.662 51.8069,84.341 C50.3586,85.413 48.8261,86.371 47.3303,87.382 C42.7349,90.487 41.4916,94.129 43.2184,99.427 C43.2594,99.556 43.2961,99.685 43.3889,100 C41.0427,98.95 39.3288,97.421 38.023,95.411 C36.6437,93.289 35.9876,90.942 35.953,88.403 C35.9358,87.167 35.9358,85.92 35.7696,84.702 C35.3638,81.732 33.9694,80.402 31.3426,80.325 C28.6466,80.247 26.5141,81.913 25.9486,84.538 C25.9054,84.739 25.8428,84.938 25.7802,85.172 L25.7845,85.175 Z" id="Path"></path>
            <path d="M0,65.034 C0,65.034 13.3775,58.5177 26.7924,58.5177 L36.9068,27.2155 C37.2855,25.7017 38.3911,24.6729 39.6393,24.6729 C40.8875,24.6729 41.9932,25.7017 42.3719,27.2155 L52.4862,58.5177 C68.374,58.5177 79.279,65.034 79.279,65.034 C79.279,65.034 56.5558,3.133 56.5114,3.0088 C55.8592,1.1787 54.7583,-7.10542736e-15 53.274,-7.10542736e-15 L26.007,-7.10542736e-15 C24.5227,-7.10542736e-15 23.4662,1.1787 22.7696,3.0088 C22.7205,3.1307 0,65.034 0,65.034 Z" id="Path"></path>
            <path d="M141.043,45.1227 C141.043,50.6079 134.22,53.8838 124.773,53.8838 C118.624,53.8838 116.45,52.3601 116.45,49.1604 C116.45,45.8083 119.149,44.2085 125.297,44.2085 C130.846,44.2085 135.569,44.2846 141.043,44.9703 L141.043,45.1227 Z M141.118,38.3423 C137.744,37.5805 132.645,37.1234 126.572,37.1234 C108.877,37.1234 100.555,41.3135 100.555,51.065 C100.555,61.1975 106.253,65.083 119.449,65.083 C130.621,65.083 138.193,62.2641 140.968,55.3313 L141.417,55.3313 C141.342,57.0074 141.267,58.6834 141.267,59.9785 C141.267,63.5592 141.867,63.8639 144.791,63.8639 L158.587,63.8639 C157.837,61.7308 157.387,55.7122 157.387,50.5317 C157.387,44.9703 157.612,40.7802 157.612,35.1426 C157.612,23.6388 150.715,16.3251 129.121,16.3251 C119.824,16.3251 109.477,17.925 101.605,20.2867 C102.354,23.4102 103.404,29.7335 103.929,33.8474 C110.752,30.6477 120.424,29.2764 127.922,29.2764 C138.268,29.2764 141.118,31.6381 141.118,36.4377 L141.118,38.3423 Z" id="Shape"></path>
            <path d="M178.971,48.3224 C177.097,48.5509 174.547,48.5509 171.923,48.5509 C169.149,48.5509 166.6,48.4748 164.875,48.2462 C164.875,48.8557 164.8,49.5413 164.8,50.1508 C164.8,59.6738 171.023,65.235 192.917,65.235 C213.535,65.235 220.208,59.75 220.208,50.0746 C220.208,40.9325 215.785,36.4377 196.216,35.4473 C180.995,34.7616 179.646,33.0856 179.646,31.181 C179.646,28.9717 181.595,27.8289 191.792,27.8289 C202.364,27.8289 205.213,29.2764 205.213,32.3238 L205.213,33.0094 C206.712,32.9332 209.412,32.8571 212.186,32.8571 C214.81,32.8571 217.659,32.9332 219.309,33.0856 C219.309,32.3999 219.384,31.7905 219.384,31.2572 C219.384,20.0581 210.086,16.4013 192.092,16.4013 C171.848,16.4013 165.025,21.3533 165.025,31.0286 C165.025,39.7136 170.499,45.1227 189.918,45.9607 C204.238,46.4178 205.813,48.0177 205.813,50.227 C205.813,52.5887 203.488,53.6553 193.442,53.6553 C181.895,53.6553 178.971,52.0554 178.971,48.7795 L178.971,48.3224 Z" id="Path"></path>
            <path d="M244.955,8.1734 C239.482,13.2778 229.66,18.3821 224.187,19.7534 C224.262,22.5722 224.262,27.7527 224.262,30.5715 L229.285,30.6477 C229.21,36.0568 229.135,42.6086 229.135,46.9511 C229.135,57.0835 234.458,64.702 251.028,64.702 C258.001,64.702 262.65,63.9401 268.423,62.7212 C267.823,58.9881 267.148,53.2743 266.923,48.9319 C263.474,50.0746 259.126,50.6841 254.327,50.6841 C247.654,50.6841 244.955,48.8557 244.955,43.599 C244.955,39.028 244.955,34.7616 245.03,30.8001 C253.578,30.8763 262.125,31.0286 267.148,31.181 C267.073,27.2194 267.223,21.5056 267.448,17.6964 C260.175,17.8488 252.003,17.925 245.255,17.925 C245.33,14.5729 245.405,11.3732 245.48,8.1734 L244.955,8.1734 Z" id="Path"></path>
            <path d="M289.736,28.286 C289.811,24.3244 289.886,20.9724 289.961,17.6964 L274.89,17.6964 C275.115,24.2483 275.115,30.9525 275.115,40.7802 C275.115,50.6079 275.04,57.3883 274.89,63.8639 L292.135,63.8639 C291.835,59.2929 291.76,51.5983 291.76,45.0465 C291.76,34.6855 295.959,31.7143 305.481,31.7143 C309.905,31.7143 313.054,32.2476 315.828,33.238 C315.903,29.3526 316.653,21.8104 317.102,18.4583 C314.253,17.6203 311.104,17.087 307.28,17.087 C299.108,17.0108 293.11,20.3629 290.336,28.3622 L289.736,28.286 Z" id="Path"></path>
            <path d="M364.808,40.4754 C364.808,48.7795 358.81,52.6649 349.363,52.6649 C339.991,52.6649 333.993,49.008 333.993,40.4754 C333.993,31.9428 340.066,28.7431 349.363,28.7431 C358.735,28.7431 364.808,32.1714 364.808,40.4754 Z M380.478,40.0945 C380.478,23.5626 367.582,16.1728 349.363,16.1728 C331.069,16.1728 318.622,23.5626 318.622,40.0945 C318.622,56.5503 330.244,65.388 349.288,65.388 C368.482,65.388 380.478,56.5503 380.478,40.0945 Z" id="Shape"></path>
        </g>
    </g>
</svg>