<?xml version="1.0" encoding="UTF-8"?>
<svg width="3111px" height="1440px" viewBox="0 0 3111 1440" version="1.1" xmlns="http://www.w3.org/2000/svg" xmlns:xlink="http://www.w3.org/1999/xlink">
    <title>placeholder-dark-8</title>
    <g id="Page-1" stroke="none" stroke-width="1" fill="none" fill-rule="evenodd">
        <g id="placeholder-dark-8" fill-rule="nonzero">
            <rect id="Rectangle" fill="#E8E8E8" x="0" y="0" width="3111" height="1440"></rect>
            <g id="Group" transform="translate(914, 294)" fill="#000000">
                <path d="M625,11 C625,17.070693 620.070693,22 614,22 C607.921907,22 603,17.070693 603,11 C603,4.92190654 607.921907,0 614,0 C620.070693,0 625,4.92190654 625,11" id="Path"></path>
                <path d="M627,66.9962149 C627,74.1767143 621.182591,80 614,80 C606.817409,80 601,74.1767143 601,66.9962149 C601,59.8232857 606.817409,54 614,54 C621.182591,54 627,59.8232857 627,66.9962149" id="Path"></path>
                <path d="M629,121.5 C629,129.511614 622.511614,136 614.5,136 C606.488386,136 600,129.511614 600,121.5 C600,113.488386 606.488386,107 614.5,107 C622.511614,107 629,113.488386 629,121.5" id="Path"></path>
                <path d="M630,177.003687 C630,185.836456 622.830545,193 614,193 C605.161894,193 598,185.836267 598,177.003687 C598,168.163544 605.162083,161 614,161 C622.830734,161 630,168.163733 630,177.003687" id="Path"></path>
                <path d="M632,232 C632,241.941672 623.941672,250 614,250 C604.058328,250 596,241.941672 596,232 C596,222.058328 604.058328,214 614,214 C623.941672,214 632,222.058328 632,232" id="Path"></path>
                <path d="M634,288.503806 C634,299.274093 625.273902,308 614.503806,308 C603.733709,308 595,299.273902 595,288.503806 C595,277.733709 603.733519,269 614.503806,269 C625.274093,269 634,277.733519 634,288.503806" id="Path"></path>
                <path d="M636,343.496145 C636,355.370298 626.377237,365 614.503855,365 C602.630473,365 593,355.369719 593,343.496145 C593,331.62257 602.630281,322 614.503855,322 C626.37743,322 636,331.622763 636,343.496145" id="Path"></path>
                <path d="M571,11 C571,17.070693 566.070693,22 560,22 C553.921907,22 549,17.070693 549,11 C549,4.92190654 553.921907,0 560,0 C566.070693,0 571,4.92190654 571,11" id="Path"></path>
                <path d="M573,66.9962149 C573,74.1767143 567.175018,80 560,80 C552.817409,80 547,74.1767143 547,66.9962149 C547,59.8232857 552.817409,54 560,54 C567.175018,54 573,59.8232857 573,66.9962149" id="Path"></path>
                <path d="M574,121.5 C574,129.511614 567.513281,136 559.503726,136 C551.494172,136 545,129.511614 545,121.5 C545,113.488386 551.494172,107 559.503726,107 C567.513281,107 574,113.488386 574,121.5" id="Path"></path>
                <path d="M576,177.003687 C576,185.836456 568.830545,193 560,193 C551.161894,193 544,185.836267 544,177.003687 C544,168.163544 551.162083,161 560,161 C568.830734,161 576,168.163733 576,177.003687" id="Path"></path>
                <path d="M578,232 C578,241.941672 569.941672,250 560,250 C550.058328,250 542,241.941672 542,232 C542,222.058328 550.058328,214 560,214 C569.941672,214 578,222.058328 578,232" id="Path"></path>
                <path d="M579,288.503806 C579,299.274093 570.273902,308 559.503806,308 C548.733519,308 540,299.273902 540,288.503806 C540,277.733709 548.733519,269 559.503806,269 C570.274093,269 579,277.733519 579,288.503806" id="Path"></path>
                <path d="M571,842.003701 C571,848.076437 566.070693,853 560,853 C553.921907,853 549,848.076437 549,842.003701 C549,835.923563 553.921907,831 560,831 C566.070693,831 571,835.923563 571,842.003701" id="Path"></path>
                <path d="M573,787.003785 C573,794.176714 567.175018,800 560,800 C552.817409,800 547,794.176714 547,787.003785 C547,779.823286 552.817409,774 560,774 C567.175018,774 573,779.823286 573,787.003785" id="Path"></path>
                <path d="M574,731.5 C574,739.512398 567.506606,746 559.50373,746 C551.493394,746 545,739.512398 545,731.5 C545,723.487602 551.493394,717 559.50373,717 C567.506606,717 574,723.487602 574,731.5" id="Path"></path>
                <path d="M576,675.996317 C576,684.835581 568.842948,692 560.003683,692 C551.164419,692 544,684.835581 544,675.996317 C544,667.164419 551.164419,660 560.003683,660 C568.842948,660 576,667.164419 576,675.996317" id="Path"></path>
                <path d="M578,621 C578,630.942456 569.942456,639 560,639 C550.057544,639 542,630.942456 542,621 C542,611.057544 550.057544,603 560,603 C569.942456,603 578,611.057544 578,621" id="Path"></path>
                <path d="M579,565.496194 C579,576.266481 570.273902,585 559.503806,585 C548.733519,585 540,576.266481 540,565.496194 C540,554.725907 548.733519,546 559.503806,546 C570.274093,546 579,554.726098 579,565.496194" id="Path"></path>
                <path d="M625,842.003701 C625,848.076437 620.070693,853 614,853 C607.921907,853 603,848.076437 603,842.003701 C603,835.923563 607.921907,831 614,831 C620.070693,831 625,835.923563 625,842.003701" id="Path"></path>
                <path d="M627,787.003785 C627,794.176714 621.182591,800 614,800 C606.817409,800 601,794.176714 601,787.003785 C601,779.823286 606.817409,774 614,774 C621.182591,774 627,779.823286 627,787.003785" id="Path"></path>
                <path d="M629,731.5 C629,739.512398 622.514067,746 614.50373,746 C606.493394,746 600,739.512398 600,731.5 C600,723.487602 606.493394,717 614.50373,717 C622.514067,717 629,723.487602 629,731.5" id="Path"></path>
                <path d="M630,675.996317 C630,684.835581 622.83723,692 614,692 C605.16277,692 598,684.835581 598,675.996317 C598,667.164419 605.16277,660 614,660 C622.83723,660 630,667.164419 630,675.996317" id="Path"></path>
                <path d="M632,621 C632,630.942456 623.942456,639 614,639 C604.057544,639 596,630.942456 596,621 C596,611.057544 604.057544,603 614,603 C623.942456,603 632,611.057544 632,621" id="Path"></path>
                <path d="M634,565.496194 C634,576.266481 625.273902,585 614.503806,585 C603.733709,585 595,576.266481 595,565.496194 C595,554.725907 603.733519,546 614.503806,546 C625.274093,546 634,554.726098 634,565.496194" id="Path"></path>
                <path d="M581,343.496145 C581,355.370298 571.377237,365 559.503855,365 C547.629702,365 538,355.369719 538,343.496145 C538,331.62257 547.630281,322 559.503855,322 C571.378008,322 581,331.622763 581,343.496145" id="Path"></path>
                <path d="M636,396.503855 C636,408.378008 626.377237,418 614.503855,418 C602.630473,418 593,408.377237 593,396.503855 C593,384.629702 602.630281,375 614.503855,375 C626.37743,375 636,384.630281 636,396.503855" id="Path"></path>
                <path d="M581,396.503855 C581,408.378008 571.377237,418 559.503855,418 C547.629702,418 538,408.377237 538,396.503855 C538,384.629702 547.630281,375 559.503855,375 C571.378008,375 581,384.630281 581,396.503855" id="Path"></path>
                <path d="M636,448.502893 C636,460.37732 626.378285,470 614.502893,470 C602.627502,470 593,460.378285 593,448.502893 C593,436.627502 602.629238,427 614.502893,427 C626.376549,427 636,436.629238 636,448.502893" id="Path"></path>
                <path d="M581,448.502893 C581,460.37732 571.378285,470 559.502893,470 C547.627502,470 538,460.378285 538,448.502893 C538,436.627502 547.629238,427 559.502893,427 C571.376549,427 581,436.629238 581,448.502893" id="Path"></path>
                <path d="M636,505.497107 C636,517.371534 626.378285,527 614.502893,527 C602.627502,527 593,517.370762 593,505.497107 C593,493.623451 602.629238,484 614.502893,484 C626.376549,484 636,493.621715 636,505.497107" id="Path"></path>
                <path d="M680,11 C680,17.070693 675.076437,22 669.003701,22 C662.923563,22 658,17.070693 658,11 C658,4.92190654 662.923563,0 669.003701,0 C675.076437,0 680,4.92190654 680,11" id="Path"></path>
                <path d="M682,66.9962149 C682,74.1767143 676.175018,80 669,80 C661.817409,80 656,74.1767143 656,66.9962149 C656,59.8232857 661.817409,54 669,54 C676.175018,54 682,59.8232857 682,66.9962149" id="Path"></path>
                <path d="M683,121.5 C683,129.511614 676.511614,136 668.5,136 C660.488386,136 654,129.511614 654,121.5 C654,113.488386 660.488386,107 668.5,107 C676.511614,107 683,113.488386 683,121.5" id="Path"></path>
                <path d="M685,177.003687 C685,185.836456 677.836267,193 668.996313,193 C660.163544,193 653,185.836267 653,177.003687 C653,168.163544 660.163733,161 668.996313,161 C677.836456,161 685,168.163733 685,177.003687" id="Path"></path>
                <path d="M687,232 C687,241.941672 678.941672,250 669,250 C659.058328,250 651,241.941672 651,232 C651,222.058328 659.058328,214 669,214 C678.941672,214 687,222.058328 687,232" id="Path"></path>
                <path d="M688,288.503806 C688,299.274093 679.272199,308 668.5,308 C657.727611,308 649,299.273902 649,288.503806 C649,277.733709 657.727801,269 668.5,269 C679.272389,269 688,277.733519 688,288.503806" id="Path"></path>
                <path d="M690,343.496145 C690,355.370298 680.369719,365 668.496145,365 C656.62257,365 647,355.369719 647,343.496145 C647,331.62257 656.622763,322 668.496145,322 C680.369527,322 690,331.622763 690,343.496145" id="Path"></path>
                <path d="M680,842.003701 C680,848.076437 675.076437,853 669.003701,853 C662.923563,853 658,848.076437 658,842.003701 C658,835.923563 662.923563,831 669.003701,831 C675.076437,831 680,835.923563 680,842.003701" id="Path"></path>
                <path d="M682,787.003785 C682,794.176714 676.175018,800 669,800 C661.817409,800 656,794.176714 656,787.003785 C656,779.823286 661.817409,774 669,774 C676.175018,774 682,779.823286 682,787.003785" id="Path"></path>
                <path d="M683,731.5 C683,739.512398 676.506606,746 668.49627,746 C660.485933,746 654,739.512398 654,731.5 C654,723.487602 660.485933,717 668.49627,717 C676.506606,717 683,723.487602 683,731.5" id="Path"></path>
                <path d="M685,675.996317 C685,684.835581 677.835581,692 668.996317,692 C660.164419,692 653,684.835581 653,675.996317 C653,667.164419 660.164419,660 668.996317,660 C677.835581,660 685,667.164419 685,675.996317" id="Path"></path>
                <path d="M687,621 C687,630.942456 678.934959,639 669,639 C659.057544,639 651,630.942456 651,621 C651,611.057544 659.057544,603 669,603 C678.934959,603 687,611.057544 687,621" id="Path"></path>
                <path d="M688,565.496194 C688,576.266481 679.272199,585 668.5,585 C657.727611,585 649,576.266481 649,565.496194 C649,554.725907 657.727801,546 668.5,546 C679.272389,546 688,554.726098 688,565.496194" id="Path"></path>
                <path d="M690,396.503855 C690,408.378008 680.369719,418 668.496145,418 C656.62257,418 647,408.377237 647,396.503855 C647,384.629702 656.622763,375 668.496145,375 C680.369527,375 690,384.630281 690,396.503855" id="Path"></path>
                <path d="M690,448.502893 C690,460.37732 680.370762,470 668.497107,470 C656.623451,470 647,460.378285 647,448.502893 C647,436.627502 656.621715,427 668.497107,427 C680.372498,427 690,436.629238 690,448.502893" id="Path"></path>
                <path d="M690,505.497107 C690,517.371534 680.370762,527 668.497107,527 C656.623451,527 647,517.370762 647,505.497107 C647,493.623451 656.621715,484 668.497107,484 C680.372498,484 690,493.621715 690,505.497107" id="Path"></path>
                <path d="M739,787.003785 C739,794.176714 733.182591,800 726,800 C718.824982,800 713,794.176714 713,787.003785 C713,779.823286 718.824982,774 726,774 C733.182591,774 739,779.823286 739,787.003785" id="Path"></path>
                <path d="M740,731.5 C740,739.512398 733.506606,746 725.50373,746 C717.493394,746 711,739.512398 711,731.5 C711,723.487602 717.493394,717 725.50373,717 C733.506606,717 740,723.487602 740,731.5" id="Path"></path>
                <path d="M742,675.996317 C742,684.835581 734.83723,692 726,692 C717.16277,692 710,684.835581 710,675.996317 C710,667.164419 717.16277,660 726,660 C734.83723,660 742,667.164419 742,675.996317" id="Path"></path>
                <path d="M744,621 C744,630.942456 735.942456,639 726,639 C716.057544,639 708,630.942456 708,621 C708,611.057544 716.057544,603 726,603 C735.942456,603 744,611.057544 744,621" id="Path"></path>
                <path d="M798,397.996254 C798,407.939995 789.941672,416 780,416 C770.058328,416 762,407.939995 762,397.996254 C762,388.060005 770.058328,380 780,380 C789.941672,380 798,388.060005 798,397.996254" id="Path"></path>
                <path d="M852,398.496279 C852,407.612789 844.612789,415 835.496279,415 C826.387211,415 819,407.612789 819,398.496279 C819,389.387211 826.387211,382 835.496279,382 C844.612789,382 852,389.387211 852,398.496279" id="Path"></path>
                <path d="M906,397.99631 C906,406.281574 899.281574,413 891.00369,413 C882.718426,413 876,406.281574 876,397.99631 C876,389.718426 882.718426,383 891.00369,383 C899.281574,383 906,389.718426 906,397.99631" id="Path"></path>
                <path d="M960,397.996213 C960,405.734039 953.733845,412 946.003787,412 C938.265961,412 932,405.733845 932,397.996213 C932,390.265961 938.266155,384 946.003787,384 C953.734039,384 960,390.266155 960,397.996213" id="Path"></path>
                <path d="M1014,398.496244 C1014,405.402565 1008.40444,411 1001.5,411 C994.595561,411 989,405.402758 989,398.496244 C989,391.597435 994.595561,386 1001.5,386 C1008.40444,386 1014,391.597242 1014,398.496244" id="Path"></path>
                <path d="M1068,397.996281 C1068,404.075552 1063.07389,409 1057,409 C1050.92611,409 1046,404.075552 1046,397.996281 C1046,391.924448 1050.92611,387 1057,387 C1063.07389,387 1068,391.924448 1068,397.996281" id="Path"></path>
                <path d="M1122,398.497248 C1122,411.167584 1103,411.167584 1103,398.497248 C1103,385.834251 1122,385.834251 1122,398.497248" id="Path"></path>
                <path d="M1176,398.49713 C1176,409.83429 1159,409.83429 1159,398.49713 C1159,387.167623 1176,387.167623 1176,398.49713" id="Path"></path>
                <path d="M1230,397.997172 C1230,407.334276 1216,407.334276 1216,397.997172 C1216,388.667609 1230,388.667609 1230,397.997172" id="Path"></path>
                <path d="M1284,398.49722 C1284,405.83426 1273,405.83426 1273,398.49722 C1273,391.167593 1284,391.167593 1284,398.49722" id="Path"></path>
                <path d="M451.9925,435 C461.931598,435 470,443.035052 470,452.985005 C470,462.934959 461.916597,471 451.9925,471 C442.068402,471 434,462.934959 434,452.985005 C434,443.087725 442.068402,435 451.9925,435 Z" id="Path"></path>
                <path d="M413,453.5 C413,462.611123 405.611123,470 396.5,470 C387.388877,470 380,462.611123 380,453.5 C380,444.388877 387.388877,437 396.5,437 C405.611123,437 413,444.388877 413,453.5" id="Path"></path>
                <path d="M350,453 C350,459.073111 345.080542,464 339,464 C332.926889,464 328,459.073111 328,453 C328,446.926889 332.926889,442 339,442 C345.080542,442 350,446.926889 350,453" id="Path"></path>
                <path d="M293,453.5 C293,466.166667 274,466.166667 274,453.5 C274,440.833333 293,440.833333 293,453.5" id="Path"></path>
                <path d="M237,453.5 C237,464.833333 220,464.833333 220,453.5 C220,442.166667 237,442.166667 237,453.5" id="Path"></path>
                <path d="M180,453 C180,462.333333 166,462.333333 166,453 C166,443.666667 180,443.666667 180,453" id="Path"></path>
                <path d="M123,453.5 C123,460.833333 112,460.833333 112,453.5 C112,446.166667 123,446.166667 123,453.5" id="Path"></path>
                <path d="M797,507.5 C797,516.611123 789.618567,524 780.5,524 C771.388877,524 764,516.611123 764,507.5 C764,498.388877 771.388877,491 780.5,491 C789.618567,491 797,498.388877 797,507.5" id="Path"></path>
                <path d="M851,506.99631 C851,515.281574 844.281574,522 835.99631,522 C827.711047,522 821,515.281574 821,506.99631 C821,498.711047 827.711047,492 835.99631,492 C844.281574,492 851,498.711047 851,506.99631" id="Path"></path>
                <path d="M905,507.5 C905,514.952916 898.958402,521 891.496344,521 C884.04141,521 878,514.952729 878,507.5 C878,500.047084 884.041598,494 891.496344,494 C898.95859,494 905,500.047271 905,507.5" id="Path"></path>
                <path d="M960,507.5 C960,514.405034 954.403543,520 947.49624,520 C940.596649,520 935,514.405226 935,507.5 C935,500.594966 940.596457,495 947.49624,495 C954.403351,495 960,500.594774 960,507.5" id="Path"></path>
                <path d="M1013,507 C1013,513.073886 1008.07389,518 1002,518 C995.918673,518 991,513.073886 991,507 C991,500.926114 995.918673,496 1002,496 C1008.07389,496 1013,500.926114 1013,507" id="Path"></path>
                <path d="M1067,507.5 C1067,520.166667 1048,520.166667 1048,507.5 C1048,494.833333 1067,494.833333 1067,507.5" id="Path"></path>
                <path d="M1121,506.997293 C1121,517.667569 1105,517.667569 1105,506.997293 C1105,496.334236 1121,496.334236 1121,506.997293" id="Path"></path>
                <path d="M1175,506.997172 C1175,516.334276 1161,516.334276 1161,506.997172 C1161,497.667609 1175,497.667609 1175,506.997172" id="Path"></path>
                <path d="M1229,507.5 C1229,514.833333 1218,514.833333 1218,507.5 C1218,500.166667 1229,500.166667 1229,507.5" id="Path"></path>
                <path d="M797,559.5 C797,568.618567 789.618567,576 780.5,576 C771.388877,576 764,568.618567 764,559.5 C764,550.388877 771.388877,543 780.5,543 C789.618567,543 797,550.388877 797,559.5" id="Path"></path>
                <path d="M851,559.99631 C851,568.281574 844.281574,575 835.99631,575 C827.711047,575 821,568.281574 821,559.99631 C821,551.711047 827.711047,545 835.99631,545 C844.281574,545 851,551.711047 851,559.99631" id="Path"></path>
                <path d="M905,559.496344 C905,566.951279 898.958402,573 891.496344,573 C884.04141,573 878,566.951091 878,559.496344 C878,552.04141 884.041598,546 891.496344,546 C898.95859,546 905,552.041598 905,559.496344" id="Path"></path>
                <path d="M960,559.515036 C960,566.405034 954.405226,572 947.484964,572 C940.57993,572 935,566.389998 935,559.515036 C935,552.564701 940.594774,547 947.484964,547 C954.405034,547 960,552.579738 960,559.515036 Z" id="Path"></path>
                <path d="M1013,560 C1013,566.073886 1008.07389,571 1002,571 C995.918673,571 991,566.073886 991,560 C991,553.926114 995.918673,549 1002,549 C1008.07389,549 1013,553.926114 1013,560" id="Path"></path>
                <path d="M1067,559.497252 C1067,572.167583 1048,572.167583 1048,559.497252 C1048,546.834249 1067,546.834249 1067,559.497252" id="Path"></path>
                <path d="M1121,559.997293 C1121,570.667569 1105,570.667569 1105,559.997293 C1105,549.334236 1121,549.334236 1121,559.997293" id="Path"></path>
                <path d="M1175,559.997172 C1175,569.334276 1161,569.334276 1161,559.997172 C1161,550.667609 1175,550.667609 1175,559.997172" id="Path"></path>
                <path d="M1229,559.5 C1229,566.833333 1218,566.833333 1218,559.5 C1218,552.166667 1229,552.166667 1229,559.5" id="Path"></path>
                <path d="M792,621.5 C792,634.166667 773,634.166667 773,621.5 C773,608.833333 792,608.833333 792,621.5" id="Path"></path>
                <path d="M846,621.5 C846,632.833333 829,632.833333 829,621.5 C829,610.166667 846,610.166667 846,621.5" id="Path"></path>
                <path d="M900,621.00284 C900,630.332387 886,630.332387 886,621.00284 C886,611.66572 900,611.66572 900,621.00284" id="Path"></path>
                <path d="M954,621.502772 C954,628.832409 943,628.832409 943,621.502772 C943,614.165743 954,614.165743 954,621.502772" id="Path"></path>
                <path d="M792,677.5 C792,690.166667 773,690.166667 773,677.5 C773,664.833333 792,664.833333 792,677.5" id="Path"></path>
                <path d="M846,677.5 C846,688.833333 829,688.833333 829,677.5 C829,666.166667 846,666.166667 846,677.5" id="Path"></path>
                <path d="M900,677.99716 C900,687.33428 886,687.33428 886,677.99716 C886,668.667613 900,668.667613 900,677.99716" id="Path"></path>
                <path d="M954,677.497214 C954,684.834262 943,684.834262 943,677.497214 C943,670.167595 954,670.167595 954,677.497214" id="Path"></path>
                <path d="M792,732.502752 C792,745.165749 773,745.165749 773,732.502752 C773,719.832416 792,719.832416 792,732.502752" id="Path"></path>
                <path d="M846,732.50287 C846,743.832377 829,743.832377 829,732.50287 C829,721.16571 846,721.16571 846,732.50287" id="Path"></path>
                <path d="M900,733.00284 C900,742.332387 886,742.332387 886,733.00284 C886,723.66572 900,723.66572 900,733.00284" id="Path"></path>
                <path d="M954,732.497214 C954,739.834262 943,739.834262 943,732.497214 C943,725.167595 954,725.167595 954,732.497214" id="Path"></path>
                <path d="M792,787.470546 C792,792.72064 787.738655,797 782.492665,797 C777.246674,797 773,792.72064 773,787.470546 C773,782.250005 777.246674,778 782.492665,778 C787.738655,777.992657 792,782.250005 792,787.470546 Z" id="Path"></path>
                <path d="M846,787.457795 C846,792.173518 842.217902,796 837.507659,796 C832.820395,796 829,792.173714 829,787.457795 C829,782.803319 832.812735,779 837.507659,779 C842.225561,779 846,782.788007 846,787.457795 Z" id="Path"></path>
                <path d="M900,786.977358 C900,790.840208 896.893888,794 892.992436,794 C889.136366,794 886,790.825113 886,786.977358 C886,783.144698 889.136366,780 892.992436,780 C896.893888,780 900,783.144698 900,786.977358 Z" id="Path"></path>
                <path d="M516,842.003701 C516,848.076437 511.078093,853 505,853 C498.929307,853 494,848.076437 494,842.003701 C494,835.923563 498.929307,831 505,831 C511.078093,831 516,835.923563 516,842.003701" id="Path"></path>
                <path d="M457,841.49713 C457,852.83429 440,852.83429 440,841.49713 C440,830.167623 457,830.167623 457,841.49713" id="Path"></path>
                <path d="M400,842 C400,851.333333 386,851.333333 386,842 C386,832.666667 400,832.666667 400,842" id="Path"></path>
                <path d="M343,841.49722 C343,848.83426 332,848.83426 332,841.49722 C332,834.167593 343,834.167593 343,841.49722" id="Path"></path>
                <path d="M798,451 C798,460.934959 789.942456,469 780,469 C770.057544,469 762,460.934959 762,451 C762,441.057544 770.057544,433 780,433 C789.942456,433 798,441.057544 798,451" id="Path"></path>
                <path d="M852,450.503721 C852,459.612789 844.612789,467 835.496279,467 C826.387211,467 819,459.612789 819,450.503721 C819,441.387211 826.387211,434 835.496279,434 C844.612789,434 852,441.387211 852,450.503721" id="Path"></path>
                <path d="M906,451.00369 C906,459.281574 899.281574,466 891.00369,466 C882.718426,466 876,459.281574 876,451.00369 C876,442.718426 882.718426,436 891.00369,436 C899.281574,436 906,442.718426 906,451.00369" id="Path"></path>
                <path d="M960,451.003787 C960,458.734039 953.733845,465 946.003787,465 C938.265961,465 932,458.733845 932,451.003787 C932,443.265961 938.266155,437 946.003787,437 C953.734039,437 960,443.266155 960,451.003787" id="Path"></path>
                <path d="M1014,450.503756 C1014,457.402565 1008.40444,463 1001.5,463 C994.595561,463 989,457.402758 989,450.503756 C989,443.597435 994.595561,438 1001.5,438 C1008.40444,438 1014,443.597242 1014,450.503756" id="Path"></path>
                <path d="M1068,451.003719 C1068,457.075552 1063.07389,462 1057,462 C1050.92611,462 1046,457.075552 1046,451.003719 C1046,444.924448 1050.92611,440 1057,440 C1063.07389,440 1068,444.924448 1068,451.003719" id="Path"></path>
                <path d="M1122,450.502752 C1122,463.165749 1103,463.165749 1103,450.502752 C1103,437.832416 1122,437.832416 1122,450.502752" id="Path"></path>
                <path d="M1176,450.5 C1176,461.833333 1159,461.833333 1159,450.5 C1159,439.166667 1176,439.166667 1176,450.5" id="Path"></path>
                <path d="M1230,451.002828 C1230,460.332391 1216,460.332391 1216,451.002828 C1216,441.665724 1230,441.665724 1230,451.002828" id="Path"></path>
                <path d="M745,565.496194 C745,576.266481 736.266481,585 725.496194,585 C714.733519,585 706,576.266481 706,565.496194 C706,554.725907 714.733519,546 725.496194,546 C736.266481,546 745,554.726098 745,565.496194" id="Path"></path>
                <path d="M747,396.503855 C747,408.378008 737.377237,418 725.503855,418 C713.622185,418 704,408.377237 704,396.503855 C704,384.629702 713.622763,375 725.503855,375 C737.378008,375 747,384.630281 747,396.503855" id="Path"></path>
                <path d="M798,343 C798,352.942456 789.942456,361 780,361 C770.057544,361 762,352.942456 762,343 C762,333.057544 770.057544,325 780,325 C789.942456,325 798,333.057544 798,343" id="Path"></path>
                <path d="M852,343.5 C852,352.611123 844.612789,360 835.496279,360 C826.387211,360 819,352.611123 819,343.5 C819,334.388877 826.387211,327 835.496279,327 C844.612789,327 852,334.388877 852,343.5" id="Path"></path>
                <path d="M906,342.99631 C906,351.281574 899.281574,358 891.00369,358 C882.718426,358 876,351.281574 876,342.99631 C876,334.711047 882.718426,328 891.00369,328 C899.281574,328 906,334.711047 906,342.99631" id="Path"></path>
                <path d="M960,342.996213 C960,350.726465 953.733845,357 946.003787,357 C938.265961,357 932,350.726271 932,342.996213 C932,335.266155 938.266155,329 946.003787,329 C953.734039,329 960,335.266155 960,342.996213" id="Path"></path>
                <path d="M1014,343.5 C1014,350.404247 1008.40444,356 1001.5,356 C994.595561,356 989,350.404439 989,343.5 C989,336.595561 994.595561,331 1001.5,331 C1008.40444,331 1014,336.595561 1014,343.5" id="Path"></path>
                <path d="M1068,343 C1068,349.073886 1063.07389,354 1057,354 C1050.92611,354 1046,349.073886 1046,343 C1046,336.926114 1050.92611,332 1057,332 C1063.07389,332 1068,336.926114 1068,343" id="Path"></path>
                <path d="M1122,343.48534 C1122,348.727284 1117.75004,353 1112.51468,353 C1107.26464,353 1103,348.727284 1103,343.48534 C1103,338.272904 1107.26464,334 1112.51468,334 C1117.74986,334 1122,338.272716 1122,343.48534 Z" id="Path"></path>
                <path d="M1176,343.5 C1176,354.833333 1159,354.833333 1159,343.5 C1159,332.166667 1176,332.166667 1176,343.5" id="Path"></path>
                <path d="M1230,342.997172 C1230,352.334276 1216,352.334276 1216,342.997172 C1216,333.667609 1230,333.667609 1230,342.997172" id="Path"></path>
                <path d="M1284,343.5 C1284,350.833333 1273,350.833333 1273,343.5 C1273,336.166667 1284,336.166667 1284,343.5" id="Path"></path>
                <path d="M465,341 C465,348.728162 458.726271,355 450.996213,355 C443.265961,355 437,348.727967 437,341 C437,333.271838 443.266155,327 450.996213,327 C458.726465,327 465,333.272033 465,341" id="Path"></path>
                <path d="M408,341.5 C408,348.405034 402.405226,354 395.5,354 C388.594774,354 383,348.405226 383,341.5 C383,334.594966 388.594774,329 395.5,329 C402.405226,329 408,334.594774 408,341.5" id="Path"></path>
                <path d="M351,341 C351,347.073111 346.073111,352 340,352 C333.926889,352 329,347.073111 329,341 C329,334.926889 333.926889,330 340,330 C346.073111,330 351,334.926889 351,341" id="Path"></path>
                <path d="M294,341.5 C294,354.166667 275,354.166667 275,341.5 C275,328.833333 294,328.833333 294,341.5" id="Path"></path>
                <path d="M238,341.5 C238,352.833333 221,352.833333 221,341.5 C221,330.166667 238,330.166667 238,341.5" id="Path"></path>
                <path d="M181,341 C181,350.333333 167,350.333333 167,341 C167,331.666667 181,331.666667 181,341" id="Path"></path>
                <path d="M124,341.5 C124,348.833333 113,348.833333 113,341.5 C113,334.166667 124,334.166667 124,341.5" id="Path"></path>
                <path d="M458,120.50294 C458,131.832353 441,131.832353 441,120.50294 C441,109.165687 458,109.165687 458,120.50294" id="Path"></path>
                <path d="M401,121.002828 C401,130.332391 387,130.332391 387,121.002828 C387,111.665724 401,111.665724 401,121.002828" id="Path"></path>
                <path d="M344,120.5 C344,127.833333 333,127.833333 333,120.5 C333,113.166667 344,113.166667 344,120.5" id="Path"></path>
                <path d="M459,177 C459,190.333333 439,190.333333 439,177 C439,163.666667 459,163.666667 459,177" id="Path"></path>
                <path d="M401,177 C401,186.333333 387,186.333333 387,177 C387,167.666667 401,167.666667 401,177" id="Path"></path>
                <path d="M344,177.5 C344,184.833333 333,184.833333 333,177.5 C333,170.166667 344,170.166667 344,177.5" id="Path"></path>
                <path d="M458,68 C458,77.3333333 444,77.3333333 444,68 C444,58.6666667 458,58.6666667 458,68" id="Path"></path>
                <path d="M726.022501,307 C716.053401,307 708,298.934959 708,288.985005 C708,279.080228 716.068402,271 726.022501,271 C735.946599,271 744,279.095031 744,288.985005 C744,298.949954 735.931598,307 726.022501,307 Z" id="Path"></path>
                <path d="M797,288.5 C797,297.611123 789.618567,305 780.5,305 C771.388877,305 764,297.611123 764,288.5 C764,279.388877 771.388877,272 780.5,272 C789.618567,272 797,279.388877 797,288.5" id="Path"></path>
                <path d="M851,289.00369 C851,297.288953 844.281574,304 835.99631,304 C827.711047,304 821,297.288953 821,289.00369 C821,280.718426 827.711047,274 835.99631,274 C844.281574,274 851,280.718426 851,289.00369" id="Path"></path>
                <path d="M744,232 C744,241.941672 735.941672,250 726,250 C716.058328,250 708,241.941672 708,232 C708,222.058328 716.058328,214 726,214 C735.941672,214 744,222.058328 744,232" id="Path"></path>
                <path d="M797,232.5 C797,241.611123 789.618567,249 780.5,249 C771.388877,249 764,241.611123 764,232.5 C764,223.381433 771.388877,216 780.5,216 C789.618567,216 797,223.381433 797,232.5" id="Path"></path>
                <path d="M851,232.00369 C851,240.288953 844.281574,247 835.99631,247 C827.711047,247 821,240.288953 821,232.00369 C821,223.718426 827.711047,217 835.99631,217 C844.281574,217 851,223.718426 851,232.00369" id="Path"></path>
                <path d="M905,288.5 C905,295.952916 898.958402,302 891.496344,302 C884.04141,302 878,295.952729 878,288.5 C878,281.047084 884.041598,275 891.496344,275 C898.95859,275 905,281.047271 905,288.5" id="Path"></path>
                <path d="M960,288.485 C960,295.358462 954.405226,301 947.484964,301 C940.57993,301 935,295.343462 935,288.485 C935,281.626538 940.594774,276 947.484964,276 C954.405034,276 960,281.626538 960,288.485 Z" id="Path"></path>
                <path d="M740,177 C740,185.287302 733.281574,192 725.00369,192 C716.718426,192 710,185.287302 710,177 C710,168.712698 716.718426,162 725.00369,162 C733.281574,162 740,168.712698 740,177" id="Path"></path>
                <path d="M794,177 C794,184.728162 787.733845,191 780.003787,191 C772.265961,191 766,184.727967 766,177 C766,169.271838 772.266155,163 780.003787,163 C787.734039,163 794,169.272033 794,177" id="Path"></path>
                <path d="M848,177.5 C848,184.404247 842.404439,190 835.5,190 C828.595753,190 823,184.404439 823,177.5 C823,170.595753 828.595561,165 835.5,165 C842.404247,165 848,170.595561 848,177.5" id="Path"></path>
                <path d="M1013,289 C1013,295.073886 1008.07389,300 1002,300 C995.918673,300 991,295.073886 991,289 C991,282.926114 995.918673,278 1002,278 C1008.07389,278 1013,282.926114 1013,289" id="Path"></path>
                <path d="M1067,288.5 C1067,301.166667 1048,301.166667 1048,288.5 C1048,275.833333 1067,275.833333 1067,288.5" id="Path"></path>
                <path d="M901,232.502756 C901,245.165748 882,245.165748 882,232.502756 C882,219.832415 901,219.832415 901,232.502756" id="Path"></path>
                <path d="M1121,289.002707 C1121,299.665764 1105,299.665764 1105,289.002707 C1105,278.332431 1121,278.332431 1121,289.002707" id="Path"></path>
                <path d="M955,232.5 C955,243.833333 938,243.833333 938,232.5 C938,221.166667 955,221.166667 955,232.5" id="Path"></path>
                <path d="M1175,289.002828 C1175,298.332391 1161,298.332391 1161,289.002828 C1161,279.665724 1175,279.665724 1175,289.002828" id="Path"></path>
                <path d="M1229,288.5 C1229,295.833333 1218,295.833333 1218,288.5 C1218,281.166667 1229,281.166667 1229,288.5" id="Path"></path>
                <path d="M1006,232.5 C1006,239.833333 995,239.833333 995,232.5 C995,225.166667 1006,225.166667 1006,232.5" id="Path"></path>
                <path d="M464,232.5 C464,241.611123 456.612789,249 447.503721,249 C438.387211,249 431,241.611123 431,232.5 C431,223.381433 438.387211,216 447.503721,216 C456.612789,216 464,223.381433 464,232.5" id="Path"></path>
                <path d="M407,232.00369 C407,240.288953 400.281574,247 391.99631,247 C383.718426,247 377,240.288953 377,232.00369 C377,223.718426 383.718426,217 391.99631,217 C400.281574,217 407,223.718426 407,232.00369" id="Path"></path>
                <path d="M347,232.5 C347,245.166667 328,245.166667 328,232.5 C328,219.833333 347,219.833333 347,232.5" id="Path"></path>
                <path d="M290,232.5 C290,243.833333 273,243.833333 273,232.5 C273,221.166667 290,221.166667 290,232.5" id="Path"></path>
                <path d="M233,232.5 C233,239.833333 222,239.833333 222,232.5 C222,225.166667 233,225.166667 233,232.5" id="Path"></path>
                <path d="M464,289.5 C464,298.611123 456.612789,306 447.503721,306 C438.387211,306 431,298.611123 431,289.5 C431,280.388877 438.387211,273 447.503721,273 C456.612789,273 464,280.388877 464,289.5" id="Path"></path>
                <path d="M407,288.99631 C407,297.281574 400.281574,304 391.99631,304 C383.718426,304 377,297.281574 377,288.99631 C377,280.711047 383.718426,274 391.99631,274 C400.281574,274 407,280.711047 407,288.99631" id="Path"></path>
                <path d="M347,289.5 C347,302.166667 328,302.166667 328,289.5 C328,276.833333 347,276.833333 347,289.5" id="Path"></path>
                <path d="M290,289.5 C290,300.833333 273,300.833333 273,289.5 C273,278.166667 290,278.166667 290,289.5" id="Path"></path>
                <path d="M233,289.5 C233,296.833333 222,296.833333 222,289.5 C222,282.166667 233,282.166667 233,289.5" id="Path"></path>
                <path d="M742,120.996307 C742,129.282344 735.282344,136 727.003693,136 C718.717656,136 712,129.282344 712,120.996307 C712,112.71027 718.717656,106 727.003693,106 C735.282344,106 742,112.71027 742,120.996307" id="Path"></path>
                <path d="M792,120.48534 C792,125.727284 787.738655,130 782.492665,130 C777.246674,130 773,125.727284 773,120.48534 C773,115.272904 777.246674,111 782.492665,111 C787.738655,111 792,115.258057 792,120.48534 Z" id="Path"></path>
                <path d="M846,120.5 C846,131.833333 829,131.833333 829,120.5 C829,109.166667 846,109.166667 846,120.5" id="Path"></path>
                <path d="M897,120.5 C897,127.833333 886,127.833333 886,120.5 C886,113.166667 897,113.166667 897,120.5" id="Path"></path>
                <path d="M733,68.5 C733,79.8333333 716,79.8333333 716,68.5 C716,57.1666667 733,57.1666667 733,68.5" id="Path"></path>
                <path d="M783,68.5 C783,75.8333333 772,75.8333333 772,68.5 C772,61.1666667 783,61.1666667 783,68.5" id="Path"></path>
                <path d="M747,341.496145 C747,353.370298 737.377237,363 725.503855,363 C713.622185,363 704,353.369719 704,341.496145 C704,329.62257 713.622763,320 725.503855,320 C737.378008,320 747,329.622763 747,341.496145" id="Path"></path>
                <path d="M747,448.502893 C747,460.37732 737.378285,470 725.502893,470 C713.627502,470 704,460.378285 704,448.502893 C704,436.627502 713.629238,427 725.502893,427 C737.376549,427 747,436.629238 747,448.502893" id="Path"></path>
                <path d="M747,505.497107 C747,517.371534 737.378285,527 725.502893,527 C713.627502,527 704,517.370762 704,505.497107 C704,493.623451 713.629238,484 725.502893,484 C737.376549,484 747,493.621715 747,505.497107" id="Path"></path>
                <path d="M581,505.497107 C581,517.371534 571.378285,527 559.502893,527 C547.627502,527 538,517.370762 538,505.497107 C538,493.623451 547.629238,484 559.502893,484 C571.376549,484 581,493.621715 581,505.497107" id="Path"></path>
                <path d="M518,66.9962149 C518,74.1767143 512.182591,80 505,80 C497.817409,80 492,74.1767143 492,66.9962149 C492,59.8232857 497.817409,54 505,54 C512.182591,54 518,59.8232857 518,66.9962149" id="Path"></path>
                <path d="M520,121.5 C520,129.511614 513.511614,136 505.5,136 C497.488386,136 491,129.511614 491,121.5 C491,113.488386 497.488386,107 505.5,107 C513.511614,107 520,113.488386 520,121.5" id="Path"></path>
                <path d="M458,784.50294 C458,795.832353 441,795.832353 441,784.50294 C441,773.165687 458,773.165687 458,784.50294" id="Path"></path>
                <path d="M401,785.002828 C401,794.332391 387,794.332391 387,785.002828 C387,775.665724 401,775.665724 401,785.002828" id="Path"></path>
                <path d="M344,784.5 C344,791.833333 333,791.833333 333,784.5 C333,777.166667 344,777.166667 344,784.5" id="Path"></path>
                <path d="M520,786.49627 C520,794.506606 513.512398,801 505.5,801 C497.487602,801 491,794.506606 491,786.49627 C491,778.485933 497.487602,772 505.5,772 C513.512398,772 520,778.485933 520,786.49627" id="Path"></path>
                <path d="M521,177.003687 C521,185.836456 513.837917,193 505,193 C496.161894,193 489,185.836267 489,177.003687 C489,168.163544 496.162083,161 505,161 C513.838106,161 521,168.163733 521,177.003687" id="Path"></path>
                <path d="M523,232 C523,241.941672 514.941672,250 505,250 C495.058328,250 487,241.941672 487,232 C487,222.058328 495.058328,214 505,214 C514.941672,214 523,222.058328 523,232" id="Path"></path>
                <path d="M431,726.477571 C431,717.407819 438.385503,710 447.477583,710 C456.607057,710 464,717.407819 464,726.477571 C464,735.629361 456.607057,743 447.477583,743 C438.385503,743.014882 431,735.629361 431,726.477571 Z" id="Path"></path>
                <path d="M377,725.959455 C377,717.733938 383.720079,711 392,711 C400.294683,711 407,717.726566 407,725.959455 C407,734.303111 400.294683,741 392,741 C383.720079,741 377,734.302922 377,725.959455 Z" id="Path"></path>
                <path d="M328,726.470541 C328,721.279362 332.27932,717 337.514682,717 C342.764727,717 347,721.279362 347,726.470541 C347,731.750002 342.757386,736 337.514682,736 C332.279508,736 328,731.742661 328,726.470541 Z" id="Path"></path>
                <path d="M273,725.974735 C273,721.586095 276.812735,718 281.507659,718 C286.194924,718 290,721.578877 290,725.974735 C290,730.421123 286.202583,734 281.507659,734 C276.820395,734 273,730.421123 273,725.974735 Z" id="Path"></path>
                <path d="M227.492599,721 C230.531793,721 233,723.442038 233,726.470263 C233,729.557962 230.531604,732 227.492599,732 C224.483198,732 222,729.557962 222,726.470263 C222,723.441848 224.483198,721 227.492599,721 Z" id="Path"></path>
                <path d="M505.014984,708 C495.035047,708 487,716.041794 487,725.969889 C487,735.973213 495.050042,744 505.014984,744 C514.949937,744 523,735.958206 523,725.969889 C523.014999,716.034098 514.949937,708 505.014984,708 Z" id="Path"></path>
                <path d="M525,288.503806 C525,299.274093 516.272199,308 505.5,308 C494.727611,308 486,299.273902 486,288.503806 C486,277.733709 494.727801,269 505.5,269 C516.272389,269 525,277.733519 525,288.503806" id="Path"></path>
                <path d="M464,396.503721 C464,405.612789 456.612789,413 447.503721,413 C438.387211,413 431,405.612789 431,396.503721 C431,387.387211 438.387211,380 447.503721,380 C456.612789,380 464,387.387211 464,396.503721" id="Path"></path>
                <path d="M407,396.00369 C407,404.281574 400.281574,411 391.99631,411 C383.718426,411 377,404.281574 377,396.00369 C377,387.718426 383.718426,381 391.99631,381 C400.281574,381 407,387.718426 407,396.00369" id="Path"></path>
                <path d="M347,396.5 C347,409.166667 328,409.166667 328,396.5 C328,383.833333 347,383.833333 347,396.5" id="Path"></path>
                <path d="M290,396.5 C290,407.833333 273,407.833333 273,396.5 C273,385.166667 290,385.166667 290,396.5" id="Path"></path>
                <path d="M233,396.5 C233,403.833333 222,403.833333 222,396.5 C222,389.166667 233,389.166667 233,396.5" id="Path"></path>
                <path d="M505.5076,376 C494.709742,376 486,384.750848 486,395.530427 C486,406.249722 494.709552,415 505.5076,415 C516.260751,415 525,406.249152 525,395.530427 C525.014845,384.766442 516.260561,376 505.5076,376 L505.5076,376 Z" id="Path"></path>
                <path d="M527,343.496145 C527,355.370298 517.369719,365 505.496145,365 C493.621992,365 484,355.369719 484,343.496145 C484,331.62257 493.622763,322 505.496145,322 C517.370298,322 527,331.622763 527,343.496145" id="Path"></path>
                <path d="M527,453.5 C527,465.372763 517.373535,475 505.5,475 C493.627237,475 484,465.373535 484,453.5 C484,441.627237 493.626465,432 505.5,432 C517.372763,432 527,441.626465 527,453.5" id="Path"></path>
                <path d="M470,508 C470,517.942456 461.942456,526 452,526 C442.057544,526 434,517.942456 434,508 C434,498.057544 442.057544,490 452,490 C461.942456,490 470,498.057544 470,508" id="Path"></path>
                <path d="M413,507.5 C413,516.618567 405.611123,524 396.5,524 C387.388877,524 380,516.618567 380,507.5 C380,498.388877 387.388877,491 396.5,491 C405.611123,491 413,498.388877 413,507.5" id="Path"></path>
                <path d="M350,508 C350,514.080542 345.080542,519 339,519 C332.926889,519 328,514.080542 328,508 C328,501.926889 332.926889,497 339,497 C345.080542,497 350,501.926889 350,508" id="Path"></path>
                <path d="M293,507.5 C293,520.166667 274,520.166667 274,507.5 C274,494.833333 293,494.833333 293,507.5" id="Path"></path>
                <path d="M237,507.5 C237,518.833333 220,518.833333 220,507.5 C220,496.166667 237,496.166667 237,507.5" id="Path"></path>
                <path d="M180,507.997172 C180,517.334276 166,517.334276 166,507.997172 C166,498.667609 180,498.667609 180,507.997172" id="Path"></path>
                <path d="M123,508.497214 C123,515.834262 112,515.834262 112,508.497214 C112,501.167595 123,501.167595 123,508.497214" id="Path"></path>
                <path d="M65,507.497252 C65,513.500916 56,513.500916 56,507.497252 C56,501.500916 65,501.500916 65,507.497252" id="Path"></path>
                <path d="M8,508 C8,513.333333 0,513.333333 0,508 C0,502.666667 8,502.666667 8,508" id="Path"></path>
                <path d="M527,507.497107 C527,519.371534 517.372058,529 505.5,529 C493.627942,529 484,519.370762 484,507.497107 C484,495.623451 493.627942,486 505.5,486 C517.372058,486 527,495.621715 527,507.497107" id="Path"></path>
                <path d="M470,563 C470,572.935738 461.943242,581 452,581 C442.056758,581 434,572.935738 434,563 C434,553.056758 442.056758,545 452,545 C461.943242,545 470,553.056758 470,563" id="Path"></path>
                <path d="M413,562.503721 C413,571.612789 405.611123,579 396.5,579 C387.388877,579 380,571.612789 380,562.503721 C380,553.387211 387.388877,546 396.5,546 C405.611123,546 413,553.387211 413,562.503721" id="Path"></path>
                <path d="M328,562.985119 C328,556.903791 332.941898,552 339.029818,552 C345.080584,552 350,556.903791 350,562.985119 C350,569.096209 345.073154,574 339.029818,574 C332.941898,574 328,569.096209 328,562.985119 Z" id="Path"></path>
                <path d="M274,562.529454 C274,557.27936 278.246674,553 283.492665,553 C288.738655,553 293,557.249995 293,562.529454 C292.985306,567.749995 288.738655,572 283.492665,572 C278.246674,572.007343 274,567.764677 274,562.529454 Z" id="Path"></path>
                <path d="M237,562.49713 C237,573.83429 220,573.83429 220,562.49713 C220,551.167623 237,551.167623 237,562.49713" id="Path"></path>
                <path d="M180,563.002828 C180,572.332391 166,572.332391 166,563.002828 C166,553.665724 180,553.665724 180,563.002828" id="Path"></path>
                <path d="M123,562.502786 C123,569.832405 112,569.832405 112,562.502786 C112,555.165738 123,555.165738 123,562.502786" id="Path"></path>
                <path d="M65,562.502748 C65,568.499084 56,568.499084 56,562.502748 C56,556.499084 65,556.499084 65,562.502748" id="Path"></path>
                <path d="M8,563.002764 C8,568.332412 0,568.332412 0,563.002764 C0,557.665745 8,557.665745 8,563.002764" id="Path"></path>
                <path d="M1008,622 C1008,627.333333 1000,627.333333 1000,622 C1000,616.666667 1008,616.666667 1008,622" id="Path"></path>
                <path d="M1008,675.997225 C1008,681.334258 1000,681.334258 1000,675.997225 C1000,670.667592 1008,670.667592 1008,675.997225" id="Path"></path>
                <path d="M523,619 C523,628.943242 514.943242,637 505,637 C495.056758,637 487,628.943242 487,619 C487,609.056758 495.056758,601 505,601 C514.943242,601 523,609.056758 523,619" id="Path"></path>
                <path d="M468,619.5 C468,628.611123 460.611123,636 451.5,636 C442.388877,636 435,628.611123 435,619.5 C435,610.388877 442.388877,603 451.5,603 C460.611123,603 468,610.388877 468,619.5" id="Path"></path>
                <path d="M405,619 C405,625.073111 400.073111,630 394,630 C387.919458,630 383,625.073111 383,619 C383,612.926889 387.919458,608 394,608 C400.073111,608 405,612.926889 405,619" id="Path"></path>
                <path d="M348,619.5 C348,632.166667 329,632.166667 329,619.5 C329,606.833333 348,606.833333 348,619.5" id="Path"></path>
                <path d="M292,619.5 C292,630.833333 275,630.833333 275,619.5 C275,608.166667 292,608.166667 292,619.5" id="Path"></path>
                <path d="M235,619 C235,628.333333 221,628.333333 221,619 C221,609.666667 235,609.666667 235,619" id="Path"></path>
                <path d="M178,619.5 C178,626.833333 167,626.833333 167,619.5 C167,612.166667 178,612.166667 178,619.5" id="Path"></path>
                <path d="M120,619.5 C120,625.5 111,625.5 111,619.5 C111,613.5 120,613.5 120,619.5" id="Path"></path>
                <path d="M63,619 C63,624.333333 55,624.333333 55,619 C55,613.666667 63,613.666667 63,619" id="Path"></path>
                <path d="M523,674 C523,683.942456 514.942456,692 505,692 C495.057544,692 487,683.942456 487,674 C487,664.057544 495.057544,656 505,656 C514.942456,656 523,664.057544 523,674" id="Path"></path>
                <path d="M468,674.5 C468,683.618567 460.611123,691 451.5,691 C442.388877,691 435,683.618567 435,674.5 C435,665.388877 442.388877,658 451.5,658 C460.611123,658 468,665.388877 468,674.5" id="Path"></path>
                <path d="M405,674 C405,680.080542 400.073111,685 394,685 C387.919458,685 383,680.080542 383,674 C383,667.926889 387.919458,663 394,663 C400.073111,663 405,667.926889 405,674" id="Path"></path>
                <path d="M348,674.497252 C348,687.167583 329,687.167583 329,674.497252 C329,661.834249 348,661.834249 348,674.497252" id="Path"></path>
                <path d="M292,674.49706 C292,685.834313 275,685.834313 275,674.49706 C275,663.167647 292,663.167647 292,674.49706" id="Path"></path>
                <path d="M235,674 C235,683.333333 221,683.333333 221,674 C221,664.666667 235,664.666667 235,674" id="Path"></path>
                <path d="M178,674.5 C178,681.833333 167,681.833333 167,674.5 C167,667.166667 178,667.166667 178,674.5" id="Path"></path>
                <path d="M120,674.5 C120,680.5 111,680.5 111,674.5 C111,668.5 120,668.5 120,674.5" id="Path"></path>
                <path d="M527,562.503855 C527,574.378008 517.369719,584 505.496145,584 C493.621992,584 484,574.377237 484,562.503855 C484,550.622185 493.622763,541 505.496145,541 C517.370298,541 527,550.622763 527,562.503855" id="Path"></path>
            </g>
        </g>
    </g>
</svg>