<?xml version="1.0" encoding="UTF-8"?>
<svg viewBox="0 0 1200 1200" xmlns="http://www.w3.org/2000/svg">
 <rect x="-120" y="-120" width="1440" height="1440" fill="#e8e8e8"/>
 <path d="m581.59 393.95c0 3.1992-2.5977 5.7969-5.7969 5.7969-3.2031 0-5.7969-2.5977-5.7969-5.7969 0-3.2031 2.5938-5.7969 5.7969-5.7969 3.1992 0 5.7969 2.5938 5.7969 5.7969"/>
 <path d="m582.48 423.01c0 3.6992-2.9961 6.6992-6.6953 6.6992-3.6992 0-6.6953-3-6.6953-6.6992 0-3.6953 2.9961-6.6953 6.6953-6.6953 3.6992 0 6.6953 3 6.6953 6.6953"/>
 <path d="m583.38 452.07c0 4.1914-3.3945 7.5859-7.5859 7.5859-4.1914 0-7.5859-3.3945-7.5859-7.5859 0-4.1914 3.3945-7.5859 7.5859-7.5859 4.1914 0 7.5859 3.3945 7.5859 7.5859"/>
 <path d="m584.26 481.14c0 4.6719-3.793 8.4609-8.4648 8.4609-4.6758 0-8.4648-3.7891-8.4648-8.4609 0-4.6758 3.7891-8.4648 8.4648-8.4648 4.6719 0 8.4648 3.7891 8.4648 8.4648"/>
 <path d="m585.16 509.91c0 5.1758-4.1953 9.3711-9.3711 9.3711-5.1758 0-9.3711-4.1953-9.3711-9.3711 0-5.1758 4.1953-9.3711 9.3711-9.3711 5.1758 0 9.3711 4.1953 9.3711 9.3711"/>
 <path d="m586.04 539.27c0 5.6602-4.5859 10.246-10.246 10.246s-10.25-4.5859-10.25-10.246 4.5898-10.25 10.25-10.25 10.246 4.5898 10.246 10.25"/>
 <path d="m586.95 568.33c0 6.1602-4.9922 11.156-11.152 11.156s-11.156-4.9961-11.156-11.156 4.9961-11.152 11.156-11.152 11.152 4.9922 11.152 11.152"/>
 <path d="m552.93 393.95c0 3.1992-2.5977 5.7969-5.7969 5.7969-3.2031 0-5.7969-2.5977-5.7969-5.7969 0-3.2031 2.5938-5.7969 5.7969-5.7969 3.1992 0 5.7969 2.5938 5.7969 5.7969"/>
 <path d="m553.83 423.01c0 3.6992-3 6.6992-6.6953 6.6992-3.6992 0-6.6953-3-6.6953-6.6992 0-3.6953 2.9961-6.6953 6.6953-6.6953 3.6953 0 6.6953 3 6.6953 6.6953"/>
 <path d="m554.72 452.07c0 4.1914-3.3945 7.5859-7.5859 7.5859-4.1914 0-7.5898-3.3945-7.5898-7.5859 0-4.1914 3.3984-7.5859 7.5898-7.5859 4.1914 0 7.5859 3.3945 7.5859 7.5859"/>
 <path d="m555.6 481.14c0 4.6719-3.793 8.4609-8.4648 8.4609-4.6758 0-8.4648-3.7891-8.4648-8.4609 0-4.6758 3.7891-8.4648 8.4648-8.4648 4.6719 0 8.4648 3.7891 8.4648 8.4648"/>
 <path d="m556.5 509.91c0 5.1758-4.1953 9.3711-9.3711 9.3711-5.1758 0-9.3711-4.1953-9.3711-9.3711 0-5.1758 4.1953-9.3711 9.3711-9.3711 5.1758 0 9.3711 4.1953 9.3711 9.3711"/>
 <path d="m557.38 539.27c0 5.6602-4.5859 10.246-10.246 10.246-5.6602 0-10.25-4.5859-10.25-10.246s4.5898-10.25 10.25-10.25c5.6602 0 10.246 4.5898 10.246 10.25"/>
 <path d="m552.93 829.35c0 3.1992-2.5977 5.793-5.7969 5.793-3.2031 0-5.7969-2.5938-5.7969-5.793 0-3.2031 2.5938-5.7969 5.7969-5.7969 3.1992 0 5.7969 2.5938 5.7969 5.7969"/>
 <path d="m553.83 800.8c0 3.6953-3 6.6953-6.6953 6.6953-3.6992 0-6.6953-3-6.6953-6.6953 0-3.6992 2.9961-6.6992 6.6953-6.6992 3.6953 0 6.6953 3 6.6953 6.6992"/>
 <path d="m554.71 771.72c0 4.1875-3.3945 7.5781-7.5781 7.5781-4.1875 0-7.582-3.3906-7.582-7.5781s3.3945-7.5781 7.582-7.5781c4.1836 0 7.5781 3.3906 7.5781 7.5781"/>
 <path d="m555.6 742.65c0 4.6797-3.7891 8.4727-8.4688 8.4727-4.6797 0-8.4727-3.793-8.4727-8.4727 0-4.6758 3.793-8.4688 8.4727-8.4688 4.6797 0 8.4688 3.793 8.4688 8.4688"/>
 <path d="m556.5 713.59c0 5.1719-4.1914 9.3633-9.3633 9.3633-5.1719 0-9.3633-4.1914-9.3633-9.3633s4.1914-9.3633 9.3633-9.3633c5.1719 0 9.3633 4.1914 9.3633 9.3633"/>
 <path d="m557.38 684.54c0 5.6602-4.5859 10.25-10.246 10.25-5.6602 0-10.25-4.5898-10.25-10.25s4.5898-10.246 10.25-10.246c5.6602 0 10.246 4.5859 10.246 10.246"/>
 <path d="m581.59 829.35c0 3.1992-2.5977 5.793-5.7969 5.793-3.2031 0-5.7969-2.5938-5.7969-5.793 0-3.2031 2.5938-5.7969 5.7969-5.7969 3.1992 0 5.7969 2.5938 5.7969 5.7969"/>
 <path d="m582.48 800.8c0 3.6953-2.9961 6.6953-6.6953 6.6953-3.6992 0-6.6953-3-6.6953-6.6953 0-3.6992 2.9961-6.6992 6.6953-6.6992 3.6992 0 6.6953 3 6.6953 6.6992"/>
 <path d="m583.37 771.72c0 4.1875-3.3906 7.5781-7.5781 7.5781s-7.582-3.3906-7.582-7.5781 3.3945-7.5781 7.582-7.5781 7.5781 3.3906 7.5781 7.5781"/>
 <path d="m584.27 742.65c0 4.6797-3.793 8.4727-8.4727 8.4727s-8.4727-3.793-8.4727-8.4727c0-4.6758 3.793-8.4688 8.4727-8.4688s8.4727 3.793 8.4727 8.4688"/>
 <path d="m585.15 713.59c0 5.1719-4.1914 9.3633-9.3633 9.3633-5.1719 0-9.3633-4.1914-9.3633-9.3633s4.1914-9.3633 9.3633-9.3633c5.1719 0 9.3633 4.1914 9.3633 9.3633"/>
 <path d="m586.04 684.54c0 5.6602-4.5859 10.25-10.246 10.25s-10.25-4.5898-10.25-10.25 4.5898-10.246 10.25-10.246 10.246 4.5859 10.246 10.246"/>
 <path d="m558.29 568.33c0 6.1602-4.9922 11.156-11.152 11.156-6.1602 0-11.156-4.9961-11.156-11.156s4.9961-11.152 11.156-11.152c6.1602 0 11.152 4.9922 11.152 11.152"/>
 <path d="m586.95 595.82c0 6.1602-4.9922 11.152-11.152 11.152s-11.156-4.9922-11.156-11.152c0-6.1602 4.9961-11.156 11.156-11.156s11.152 4.9961 11.152 11.156"/>
 <path d="m558.29 595.82c0 6.1602-4.9922 11.152-11.152 11.152-6.1602 0-11.156-4.9922-11.156-11.152 0-6.1602 4.9961-11.156 11.156-11.156 6.1602 0 11.152 4.9961 11.152 11.156"/>
 <path d="m586.94 623.3c0 6.1562-4.9883 11.145-11.145 11.145s-11.148-4.9883-11.148-11.145 4.9922-11.148 11.148-11.148 11.145 4.9922 11.145 11.148"/>
 <path d="m558.28 623.3c0 6.1562-4.9883 11.145-11.145 11.145s-11.148-4.9883-11.148-11.145 4.9922-11.148 11.148-11.148 11.145 4.9922 11.145 11.148"/>
 <path d="m586.94 653.08c0 6.1562-4.9883 11.148-11.145 11.148s-11.148-4.9922-11.148-11.148 4.9922-11.145 11.148-11.145 11.145 4.9883 11.145 11.145"/>
 <path d="m610.29 393.95c0 3.1992-2.5938 5.7969-5.793 5.7969-3.2031 0-5.7969-2.5977-5.7969-5.7969 0-3.2031 2.5938-5.7969 5.7969-5.7969 3.1992 0 5.793 2.5938 5.793 5.7969"/>
 <path d="m611.16 423.01c0 3.6992-3 6.6992-6.6953 6.6992-3.6992 0-6.6953-3-6.6953-6.6992 0-3.6953 2.9961-6.6953 6.6953-6.6953 3.6953 0 6.6953 3 6.6953 6.6953"/>
 <path d="m612.02 452.07c0 4.1914-3.3945 7.5859-7.5859 7.5859-4.1914 0-7.5859-3.3945-7.5859-7.5859 0-4.1914 3.3945-7.5859 7.5859-7.5859 4.1914 0 7.5859 3.3945 7.5859 7.5859"/>
 <path d="m612.86 481.14c0 4.6719-3.7891 8.4609-8.4648 8.4609-4.6719 0-8.4609-3.7891-8.4609-8.4609 0-4.6758 3.7891-8.4648 8.4609-8.4648 4.6758 0 8.4648 3.7891 8.4648 8.4648"/>
 <path d="m613.74 509.91c0 5.1758-4.1953 9.3711-9.3711 9.3711-5.1758 0-9.3711-4.1953-9.3711-9.3711 0-5.1758 4.1953-9.3711 9.3711-9.3711 5.1758 0 9.3711 4.1953 9.3711 9.3711"/>
 <path d="m614.58 539.27c0 5.6602-4.5859 10.246-10.246 10.246-5.6602 0-10.246-4.5859-10.246-10.246s4.5859-10.25 10.246-10.25c5.6602 0 10.246 4.5898 10.246 10.25"/>
 <path d="m615.46 568.33c0 6.1602-4.9961 11.156-11.156 11.156s-11.152-4.9961-11.152-11.156 4.9922-11.152 11.152-11.152 11.156 4.9922 11.156 11.152"/>
 <path d="m610.29 829.35c0 3.1992-2.5938 5.793-5.793 5.793-3.2031 0-5.7969-2.5938-5.7969-5.793 0-3.2031 2.5938-5.7969 5.7969-5.7969 3.1992 0 5.793 2.5938 5.793 5.7969"/>
 <path d="m611.16 800.8c0 3.6953-3 6.6953-6.6953 6.6953-3.6992 0-6.6953-3-6.6953-6.6953 0-3.6992 2.9961-6.6992 6.6953-6.6992 3.6953 0 6.6953 3 6.6953 6.6992"/>
 <path d="m612.01 771.72c0 4.1875-3.3945 7.5781-7.582 7.5781s-7.5781-3.3906-7.5781-7.5781 3.3906-7.5781 7.5781-7.5781 7.582 3.3906 7.582 7.5781"/>
 <path d="m612.87 742.65c0 4.6797-3.793 8.4727-8.4727 8.4727-4.6758 0-8.4688-3.793-8.4688-8.4727 0-4.6758 3.793-8.4688 8.4688-8.4688 4.6797 0 8.4727 3.793 8.4727 8.4688"/>
 <path d="m613.73 713.59c0 5.1719-4.1953 9.3633-9.3633 9.3633-5.1719 0-9.3633-4.1914-9.3633-9.3633s4.1914-9.3633 9.3633-9.3633c5.168 0 9.3633 4.1914 9.3633 9.3633"/>
 <path d="m614.58 684.54c0 5.6602-4.5859 10.25-10.246 10.25-5.6602 0-10.246-4.5898-10.246-10.25s4.5859-10.246 10.246-10.246c5.6602 0 10.246 4.5859 10.246 10.246"/>
 <path d="m615.46 595.82c0 6.1602-4.9961 11.152-11.156 11.152s-11.152-4.9922-11.152-11.152c0-6.1602 4.9922-11.156 11.152-11.156s11.156 4.9961 11.156 11.156"/>
 <path d="m615.46 623.3c0 6.1562-4.9922 11.145-11.148 11.145s-11.145-4.9883-11.145-11.145 4.9883-11.148 11.145-11.148 11.148 4.9922 11.148 11.148"/>
 <path d="m615.46 653.08c0 6.1562-4.9922 11.148-11.148 11.148s-11.145-4.9922-11.145-11.148 4.9883-11.145 11.145-11.145 11.148 4.9883 11.148 11.145"/>
 <path d="m640.93 800.8c0 3.6953-2.9961 6.6953-6.6953 6.6953-3.6953 0-6.6953-3-6.6953-6.6953 0-3.6992 3-6.6992 6.6953-6.6992 3.6992 0 6.6953 3 6.6953 6.6992"/>
 <path d="m641.78 771.72c0 4.1875-3.3945 7.5781-7.5781 7.5781-4.1875 0-7.582-3.3906-7.582-7.5781s3.3945-7.5781 7.582-7.5781c4.1836 0 7.5781 3.3906 7.5781 7.5781"/>
 <path d="m642.65 742.65c0 4.6797-3.793 8.4727-8.4727 8.4727-4.6797 0-8.4727-3.793-8.4727-8.4727 0-4.6758 3.793-8.4688 8.4727-8.4688 4.6797 0 8.4727 3.793 8.4727 8.4688"/>
 <path d="m643.52 713.59c0 5.1719-4.1914 9.3633-9.3633 9.3633s-9.3633-4.1914-9.3633-9.3633 4.1914-9.3633 9.3633-9.3633 9.3633 4.1914 9.3633 9.3633"/>
 <path d="m672.16 596.76c0 5.1758-4.1953 9.3711-9.3711 9.3711s-9.3711-4.1953-9.3711-9.3711c0-5.1719 4.1953-9.3672 9.3711-9.3672s9.3711 4.1953 9.3711 9.3672"/>
 <path d="m700.43 596.76c0 4.7773-3.8711 8.6484-8.6484 8.6484-4.7734 0-8.6445-3.8711-8.6445-8.6484 0-4.7734 3.8711-8.6445 8.6445-8.6445 4.7773 0 8.6484 3.8711 8.6484 8.6445"/>
 <path d="m728.71 596.76c0 4.3789-3.5508 7.9297-7.9258 7.9297-4.3789 0-7.9297-3.5508-7.9297-7.9297 0-4.375 3.5508-7.9258 7.9297-7.9258 4.375 0 7.9258 3.5508 7.9258 7.9258"/>
 <path d="m757 596.76c0 3.9844-3.2266 7.2109-7.207 7.2109-3.9844 0-7.2109-3.2266-7.2109-7.2109 0-3.9805 3.2266-7.207 7.2109-7.207 3.9805 0 7.207 3.2266 7.207 7.207"/>
 <path d="m785.29 596.76c0 3.5859-2.9062 6.4922-6.4922 6.4922s-6.4922-2.9062-6.4922-6.4922c0-3.582 2.9062-6.4883 6.4922-6.4883s6.4922 2.9062 6.4922 6.4883"/>
 <path d="m813.57 596.76c0 3.1875-2.582 5.7695-5.7656 5.7695-3.1836 0-5.7656-2.582-5.7656-5.7695 0-3.1836 2.582-5.7656 5.7656-5.7656 3.1836 0 5.7656 2.582 5.7656 5.7656"/>
 <path d="m841.84 596.76c0 6.7344-10.094 6.7344-10.094 0 0-6.7305 10.094-6.7305 10.094 0"/>
 <path d="m870.13 596.76c0 5.7773-8.6602 5.7773-8.6602 0 0-5.7734 8.6602-5.7734 8.6602 0"/>
 <path d="m898.43 596.76c0 4.8281-7.2383 4.8281-7.2383 0 0-4.8242 7.2383-4.8242 7.2383 0"/>
 <path d="m926.7 596.76c0 3.8594-5.7891 3.8594-5.7891 0 0-3.8555 5.7891-3.8555 5.7891 0"/>
 <path d="m490.69 616.36c5.168 0 9.3633 4.1797 9.3633 9.3555s-4.2031 9.3711-9.3633 9.3711-9.3555-4.1953-9.3555-9.3711c0-5.1484 4.1953-9.3555 9.3555-9.3555z"/>
 <path d="m470.34 625.72c0 4.7734-3.8711 8.6445-8.6445 8.6445-4.7734 0-8.6445-3.8711-8.6445-8.6445s3.8711-8.6445 8.6445-8.6445c4.7734 0 8.6445 3.8711 8.6445 8.6445"/>
 <path d="m437.35 625.72c0 3.1875-2.582 5.7734-5.7734 5.7734-3.1875 0-5.7734-2.5859-5.7734-5.7734s2.5859-5.7734 5.7734-5.7734c3.1914 0 5.7734 2.5859 5.7734 5.7734"/>
 <path d="m407.63 625.72c0 6.7305-10.098 6.7305-10.098 0s10.098-6.7305 10.098 0"/>
 <path d="m377.91 625.72c0 5.7734-8.6602 5.7734-8.6602 0s8.6602-5.7734 8.6602 0"/>
 <path d="m348.19 625.72c0 4.8281-7.2422 4.8281-7.2422 0s7.2422-4.8281 7.2422 0"/>
 <path d="m318.47 625.72c0 3.8594-5.7891 3.8594-5.7891 0s5.7891-3.8594 5.7891 0"/>
 <path d="m671.79 654.03c0 4.7734-3.8672 8.6445-8.6445 8.6445-4.7734 0-8.6445-3.8711-8.6445-8.6445 0-4.7734 3.8711-8.6445 8.6445-8.6445 4.7773 0 8.6445 3.8711 8.6445 8.6445"/>
 <path d="m700.08 654.03c0 4.3789-3.5508 7.9297-7.9297 7.9297s-7.9258-3.5508-7.9258-7.9297 3.5469-7.9258 7.9258-7.9258 7.9297 3.5469 7.9297 7.9258"/>
 <path d="m728.36 654.03c0 3.9766-3.2227 7.2031-7.2031 7.2031-3.9766 0-7.1992-3.2266-7.1992-7.2031 0-3.9766 3.2227-7.2031 7.1992-7.2031 3.9805 0 7.2031 3.2266 7.2031 7.2031"/>
 <path d="m756.64 654.03c0 3.582-2.9023 6.4844-6.4844 6.4844-3.5781 0-6.4805-2.9023-6.4805-6.4844 0-3.582 2.9023-6.4844 6.4805-6.4844 3.582 0 6.4844 2.9023 6.4844 6.4844"/>
 <path d="m784.93 654.03c0 3.1836-2.582 5.7656-5.7656 5.7656-3.1875 0-5.7656-2.582-5.7656-5.7656s2.5781-5.7656 5.7656-5.7656c3.1836 0 5.7656 2.582 5.7656 5.7656"/>
 <path d="m813.22 654.03c0 6.7422-10.109 6.7422-10.109 0 0-6.7422 10.109-6.7422 10.109 0"/>
 <path d="m841.49 654.03c0 5.7656-8.6445 5.7656-8.6445 0 0-5.7617 8.6445-5.7617 8.6445 0"/>
 <path d="m869.79 654.03c0 4.8281-7.2422 4.8281-7.2422 0 0-4.8242 7.2422-4.8242 7.2422 0"/>
 <path d="m898.06 654.03c0 3.8594-5.7891 3.8594-5.7891 0s5.7891-3.8594 5.7891 0"/>
 <path d="m671.79 681.53c0 4.7773-3.8672 8.6445-8.6445 8.6445-4.7734 0-8.6445-3.8672-8.6445-8.6445 0-4.7734 3.8711-8.6445 8.6445-8.6445 4.7773 0 8.6445 3.8711 8.6445 8.6445"/>
 <path d="m700.08 681.53c0 4.3789-3.5508 7.9297-7.9297 7.9297s-7.9258-3.5508-7.9258-7.9297 3.5469-7.9258 7.9258-7.9258 7.9297 3.5469 7.9297 7.9258"/>
 <path d="m728.36 681.53c0 3.9766-3.2227 7.2031-7.2031 7.2031-3.9766 0-7.1992-3.2266-7.1992-7.2031 0-3.9766 3.2227-7.1992 7.1992-7.1992 3.9805 0 7.2031 3.2227 7.2031 7.1992"/>
 <path d="m756.65 681.53c0 3.5742-2.9023 6.4766-6.4922 6.4766-3.582 0-6.4766-2.9102-6.4766-6.4766 0-3.6055 2.9023-6.4922 6.4766-6.4922 3.5898 0 6.4922 2.8945 6.4922 6.4922z"/>
 <path d="m784.93 681.53c0 3.1836-2.582 5.7656-5.7656 5.7656-3.1875 0-5.7656-2.582-5.7656-5.7656s2.5781-5.7656 5.7656-5.7656c3.1836 0 5.7656 2.582 5.7656 5.7656"/>
 <path d="m813.22 681.53c0 6.7422-10.109 6.7422-10.109 0 0-6.7383 10.109-6.7383 10.109 0"/>
 <path d="m841.49 681.53c0 5.7656-8.6445 5.7656-8.6445 0 0-5.7617 8.6445-5.7617 8.6445 0"/>
 <path d="m869.79 681.53c0 4.8281-7.2422 4.8281-7.2422 0 0-4.8242 7.2422-4.8242 7.2422 0"/>
 <path d="m898.06 681.53c0 3.8594-5.7891 3.8594-5.7891 0s5.7891-3.8594 5.7891 0"/>
 <path d="m668.9 713.6c0 6.7305-10.094 6.7305-10.094 0 0-6.7305 10.094-6.7305 10.094 0"/>
 <path d="m697.18 713.6c0 5.7734-8.6602 5.7734-8.6602 0 0-5.7734 8.6602-5.7734 8.6602 0"/>
 <path d="m725.46 713.6c0 4.8047-7.207 4.8047-7.207 0 0-4.8086 7.207-4.8086 7.207 0"/>
 <path d="m753.77 713.59c0 3.8672-5.8008 3.8672-5.8008 0 0-3.8711 5.8008-3.8711 5.8008 0"/>
 <path d="m668.9 743.38c0 6.7305-10.094 6.7305-10.094 0s10.094-6.7305 10.094 0"/>
 <path d="m697.18 743.38c0 5.7734-8.6602 5.7734-8.6602 0s8.6602-5.7734 8.6602 0"/>
 <path d="m725.46 743.38c0 4.8086-7.207 4.8086-7.207 0 0-4.8047 7.207-4.8047 7.207 0"/>
 <path d="m753.75 743.38c0 3.8516-5.7734 3.8516-5.7734 0 0-3.8477 5.7734-3.8477 5.7734 0"/>
 <path d="m668.9 772.01c0 6.7305-10.094 6.7305-10.094 0 0-6.7344 10.094-6.7344 10.094 0"/>
 <path d="m697.18 772.01c0 5.7734-8.6602 5.7734-8.6602 0 0-5.7773 8.6602-5.7773 8.6602 0"/>
 <path d="m725.46 772.01c0 4.8047-7.207 4.8047-7.207 0 0-4.8086 7.207-4.8086 7.207 0"/>
 <path d="m753.75 772.02c0 3.8516-5.7734 3.8516-5.7734 0 0-3.8477 5.7734-3.8477 5.7734 0"/>
 <path d="m668.9 800.63c0 2.7891-2.2656 5.0625-5.0547 5.0625s-5.0469-2.2734-5.0469-5.0625c0-2.7734 2.2578-5.0312 5.0469-5.0312 2.7891-0.003906 5.0547 2.2578 5.0547 5.0312z"/>
 <path d="m697.17 800.63c0 2.4023-1.9258 4.3516-4.3242 4.3516-2.3867 0-4.332-1.9492-4.332-4.3516 0-2.3711 1.9414-4.3086 4.332-4.3086 2.4023 0 4.3242 1.9297 4.3242 4.3086z"/>
 <path d="m725.46 800.63c0 1.9961-1.6016 3.6289-3.6133 3.6289-1.9883 0-3.6055-1.6406-3.6055-3.6289 0-1.9805 1.6172-3.6055 3.6055-3.6055 2.0117 0 3.6133 1.625 3.6133 3.6055z"/>
 <path d="m524.45 829.35c0 3.1992-2.5938 5.793-5.7969 5.793-3.1992 0-5.7969-2.5938-5.7969-5.793 0-3.2031 2.5977-5.7969 5.7969-5.7969 3.2031 0 5.7969 2.5938 5.7969 5.7969"/>
 <path d="m493.25 829.35c0 5.7773-8.6602 5.7773-8.6602 0 0-5.7734 8.6602-5.7734 8.6602 0"/>
 <path d="m463.54 829.35c0 4.8164-7.2266 4.8164-7.2266 0 0-4.8164 7.2266-4.8164 7.2266 0"/>
 <path d="m433.82 829.35c0 3.8594-5.7891 3.8594-5.7891 0 0-3.8555 5.7891-3.8555 5.7891 0"/>
 <path d="m672.16 624.25c0 5.168-4.1914 9.3633-9.3633 9.3633s-9.3633-4.1953-9.3633-9.3633c0-5.1719 4.1914-9.3633 9.3633-9.3633s9.3633 4.1914 9.3633 9.3633"/>
 <path d="m700.43 624.26c0 4.7734-3.8711 8.6445-8.6484 8.6445-4.7734 0-8.6445-3.8711-8.6445-8.6445 0-4.7773 3.8711-8.6484 8.6445-8.6484 4.7773 0 8.6484 3.8711 8.6484 8.6484"/>
 <path d="m728.71 624.26c0 4.375-3.5508 7.9258-7.9258 7.9258-4.3789 0-7.9297-3.5508-7.9297-7.9258 0-4.3789 3.5508-7.9297 7.9297-7.9297 4.375 0 7.9258 3.5508 7.9258 7.9297"/>
 <path d="m757 624.26c0 3.9805-3.2266 7.207-7.207 7.207-3.9844 0-7.2109-3.2266-7.2109-7.207 0-3.9844 3.2266-7.2109 7.2109-7.2109 3.9805 0 7.207 3.2266 7.207 7.2109"/>
 <path d="m785.29 624.26c0 3.582-2.9062 6.4883-6.4922 6.4883s-6.4922-2.9062-6.4922-6.4883c0-3.5859 2.9062-6.4922 6.4922-6.4922s6.4922 2.9062 6.4922 6.4922"/>
 <path d="m813.57 624.26c0 3.1836-2.582 5.7656-5.7656 5.7656-3.1836 0-5.7656-2.582-5.7656-5.7656 0-3.1875 2.582-5.7695 5.7656-5.7695 3.1836 0 5.7656 2.582 5.7656 5.7695"/>
 <path d="m841.84 624.26c0 6.7305-10.094 6.7305-10.094 0 0-6.7344 10.094-6.7344 10.094 0"/>
 <path d="m870.13 624.26c0 5.7734-8.6602 5.7734-8.6602 0 0-5.7734 8.6602-5.7734 8.6602 0"/>
 <path d="m898.43 624.26c0 4.8242-7.2383 4.8242-7.2383 0 0-4.8281 7.2383-4.8281 7.2383 0"/>
 <path d="m644.36 684.54c0 5.6602-4.5898 10.25-10.25 10.25-5.6562 0-10.246-4.5898-10.246-10.25s4.5898-10.246 10.246-10.246c5.6602 0 10.25 4.5859 10.25 10.246"/>
 <path d="m645.25 595.82c0 6.1602-4.9922 11.152-11.152 11.152-6.1641 0-11.156-4.9922-11.156-11.152 0-6.1602 4.9922-11.156 11.156-11.156 6.1602 0 11.152 4.9961 11.152 11.156"/>
 <path d="m672.16 568.13c0 5.1719-4.1914 9.3633-9.3633 9.3633s-9.3633-4.1914-9.3633-9.3633c0-5.1719 4.1914-9.3633 9.3633-9.3633s9.3633 4.1914 9.3633 9.3633"/>
 <path d="m700.43 568.12c0 4.7734-3.8711 8.6445-8.6484 8.6445-4.7734 0-8.6445-3.8711-8.6445-8.6445s3.8711-8.6445 8.6445-8.6445c4.7773 0 8.6484 3.8711 8.6484 8.6445"/>
 <path d="m728.71 568.12c0 4.3789-3.5508 7.9297-7.9258 7.9297-4.3789 0-7.9297-3.5508-7.9297-7.9297s3.5508-7.9258 7.9297-7.9258c4.375 0 7.9258 3.5469 7.9258 7.9258"/>
 <path d="m757 568.12c0 3.9805-3.2266 7.2109-7.207 7.2109-3.9844 0-7.2109-3.2305-7.2109-7.2109s3.2266-7.207 7.2109-7.207c3.9805 0 7.207 3.2266 7.207 7.207"/>
 <path d="m785.29 568.12c0 3.5859-2.9062 6.4922-6.4922 6.4922s-6.4922-2.9062-6.4922-6.4922 2.9062-6.4922 6.4922-6.4922 6.4922 2.9062 6.4922 6.4922"/>
 <path d="m813.57 568.12c0 3.1836-2.582 5.7656-5.7656 5.7656-3.1836 0-5.7656-2.582-5.7656-5.7656s2.582-5.7656 5.7656-5.7656c3.1836 0 5.7656 2.582 5.7656 5.7656"/>
 <path d="m841.84 568.12c0 2.7891-2.2578 5.0625-5.0391 5.0625-2.7891 0-5.0547-2.2734-5.0547-5.0625 0-2.7734 2.2656-5.0469 5.0547-5.0469 2.7812 0 5.0391 2.2734 5.0391 5.0469z"/>
 <path d="m870.13 568.12c0 5.7734-8.6602 5.7734-8.6602 0s8.6602-5.7734 8.6602 0"/>
 <path d="m898.43 568.12c0 4.8281-7.2383 4.8281-7.2383 0 0-4.8242 7.2383-4.8242 7.2383 0"/>
 <path d="m926.7 568.12c0 3.8594-5.7891 3.8594-5.7891 0s5.7891-3.8594 5.7891 0"/>
 <path d="m497.19 566.99c0 3.9805-3.2305 7.2109-7.2109 7.2109-3.9805 0-7.207-3.2305-7.207-7.2109 0-3.9805 3.2266-7.2109 7.207-7.2109 3.9805 0 7.2109 3.2305 7.2109 7.2109"/>
 <path d="m467.46 566.99c0 3.582-2.9023 6.4844-6.4844 6.4844s-6.4844-2.9023-6.4844-6.4844c0-3.582 2.9023-6.4844 6.4844-6.4844s6.4844 2.9023 6.4844 6.4844"/>
 <path d="m437.75 566.99c0 3.1875-2.5859 5.7734-5.7734 5.7734s-5.7734-2.5859-5.7734-5.7734 2.5859-5.7734 5.7734-5.7734 5.7734 2.5859 5.7734 5.7734"/>
 <path d="m408.02 566.99c0 6.7305-10.098 6.7305-10.098 0 0-6.7305 10.098-6.7305 10.098 0"/>
 <path d="m378.3 566.99c0 5.7734-8.6602 5.7734-8.6602 0 0-5.7734 8.6602-5.7734 8.6602 0"/>
 <path d="m348.57 566.99c0 4.8164-7.2227 4.8164-7.2227 0 0-4.8164 7.2227-4.8164 7.2227 0"/>
 <path d="m318.85 566.98c0 3.8477-5.7773 3.8477-5.7773 0s5.7773-3.8477 5.7773 0"/>
 <path d="m493.76 451.3c0 5.7812-8.6758 5.7812-8.6758 0 0-5.7852 8.6758-5.7852 8.6758 0"/>
 <path d="m464.04 451.3c0 4.8242-7.2422 4.8242-7.2422 0 0-4.8281 7.2422-4.8281 7.2422 0"/>
 <path d="m434.31 451.3c0 3.8594-5.7891 3.8594-5.7891 0s5.7891-3.8594 5.7891 0"/>
 <path d="m494.63 481.09c0 6.9414-10.414 6.9414-10.414 0s10.414-6.9414 10.414 0"/>
 <path d="m464.04 481.09c0 4.8281-7.2422 4.8281-7.2422 0s7.2422-4.8281 7.2422 0"/>
 <path d="m434.31 481.09c0 3.8594-5.7891 3.8594-5.7891 0s5.7891-3.8594 5.7891 0"/>
 <path d="m493.75 423.82c0 4.8164-7.2227 4.8164-7.2227 0 0-4.8164 7.2227-4.8164 7.2227 0"/>
 <path d="m634.16 548.86c-5.1836 0-9.3711-4.1953-9.3711-9.3711 0-5.1523 4.1953-9.3555 9.3711-9.3555 5.1602 0 9.3477 4.2109 9.3477 9.3555 0 5.1836-4.1953 9.3711-9.3477 9.3711z"/>
 <path d="m671.79 539.49c0 4.7734-3.8672 8.6445-8.6445 8.6445-4.7734 0-8.6445-3.8711-8.6445-8.6445 0-4.7734 3.8711-8.6445 8.6445-8.6445 4.7773 0 8.6445 3.8711 8.6445 8.6445"/>
 <path d="m700.08 539.49c0 4.3789-3.5508 7.9258-7.9297 7.9258s-7.9258-3.5469-7.9258-7.9258c0-4.3789 3.5469-7.9297 7.9258-7.9297s7.9297 3.5508 7.9297 7.9297"/>
 <path d="m643.53 509.91c0 5.1758-4.1953 9.3711-9.3711 9.3711-5.1758 0-9.3711-4.1953-9.3711-9.3711 0-5.1758 4.1953-9.3711 9.3711-9.3711 5.1758 0 9.3711 4.1953 9.3711 9.3711"/>
 <path d="m671.79 509.91c0 4.7734-3.8672 8.6445-8.6445 8.6445-4.7734 0-8.6445-3.8711-8.6445-8.6445 0-4.7773 3.8711-8.6445 8.6445-8.6445 4.7773 0 8.6445 3.8672 8.6445 8.6445"/>
 <path d="m700.08 509.91c0 4.3789-3.5508 7.9258-7.9297 7.9258s-7.9258-3.5469-7.9258-7.9258c0-4.3789 3.5469-7.9297 7.9258-7.9297s7.9297 3.5508 7.9297 7.9297"/>
 <path d="m728.36 539.49c0 3.9766-3.2227 7.2031-7.2031 7.2031-3.9766 0-7.1992-3.2266-7.1992-7.2031 0-3.9766 3.2227-7.2031 7.1992-7.2031 3.9805 0 7.2031 3.2266 7.2031 7.2031"/>
 <path d="m756.65 539.49c0 3.5742-2.9023 6.5078-6.4922 6.5078-3.582 0-6.4766-2.9414-6.4766-6.5078 0-3.5664 2.9023-6.4922 6.4766-6.4922 3.5898 0 6.4922 2.9258 6.4922 6.4922z"/>
 <path d="m641.66 481.09c0 4.3789-3.5508 7.9258-7.9258 7.9258-4.3789 0-7.9297-3.5469-7.9297-7.9258s3.5508-7.9258 7.9297-7.9258c4.375 0 7.9258 3.5469 7.9258 7.9258"/>
 <path d="m669.95 481.09c0 3.9805-3.2266 7.2109-7.207 7.2109-3.9844 0-7.2109-3.2305-7.2109-7.2109 0-3.9805 3.2266-7.2109 7.2109-7.2109 3.9805 0 7.207 3.2305 7.207 7.2109"/>
 <path d="m698.24 481.09c0 3.5859-2.9062 6.4922-6.4922 6.4922-3.5859 0-6.4922-2.9062-6.4922-6.4922 0-3.5859 2.9062-6.4922 6.4922-6.4922 3.5859 0 6.4922 2.9062 6.4922 6.4922"/>
 <path d="m784.93 539.49c0 3.1836-2.582 5.7656-5.7656 5.7656-3.1875 0-5.7656-2.582-5.7656-5.7656 0-3.1836 2.5781-5.7656 5.7656-5.7656 3.1836 0 5.7656 2.582 5.7656 5.7656"/>
 <path d="m813.22 539.49c0 6.7422-10.109 6.7422-10.109 0 0-6.7422 10.109-6.7422 10.109 0"/>
 <path d="m726.16 509.91c0 6.7188-10.082 6.7188-10.082 0 0-6.7227 10.082-6.7227 10.082 0"/>
 <path d="m841.49 539.49c0 5.7617-8.6445 5.7617-8.6445 0 0-5.7656 8.6445-5.7656 8.6445 0"/>
 <path d="m754.45 509.91c0 5.7734-8.6602 5.7734-8.6602 0 0-5.7734 8.6602-5.7734 8.6602 0"/>
 <path d="m869.79 539.49c0 4.8242-7.2422 4.8242-7.2422 0 0-4.8281 7.2422-4.8281 7.2422 0"/>
 <path d="m898.06 539.51c0 3.8594-5.7891 3.8594-5.7891 0 0-3.8594 5.7891-3.8594 5.7891 0"/>
 <path d="m781.25 509.91c0 3.8594-5.7891 3.8594-5.7891 0 0-3.8594 5.7891-3.8594 5.7891 0"/>
 <path d="m497.19 509.91c0 4.7734-3.8711 8.6445-8.6445 8.6445-4.7773 0-8.6484-3.8711-8.6484-8.6445 0-4.7773 3.8711-8.6445 8.6484-8.6445 4.7734 0 8.6445 3.8672 8.6445 8.6445"/>
 <path d="m467.46 509.91c0 4.3789-3.5508 7.9258-7.9297 7.9258-4.375 0-7.9258-3.5469-7.9258-7.9258 0-4.3789 3.5508-7.9297 7.9258-7.9297 4.3789 0 7.9297 3.5508 7.9297 7.9297"/>
 <path d="m435.62 509.91c0 6.7305-10.094 6.7305-10.094 0 0-6.7305 10.094-6.7305 10.094 0"/>
 <path d="m405.9 509.91c0 5.7734-8.6602 5.7734-8.6602 0 0-5.7734 8.6602-5.7734 8.6602 0"/>
 <path d="m376.24 509.91c0 3.8594-5.7891 3.8594-5.7891 0 0-3.8594 5.7891-3.8594 5.7891 0"/>
 <path d="m497.19 539.69c0 4.7734-3.8711 8.6445-8.6445 8.6445-4.7773 0-8.6484-3.8711-8.6484-8.6445s3.8711-8.6445 8.6484-8.6445c4.7734 0 8.6445 3.8711 8.6445 8.6445"/>
 <path d="m467.46 539.69c0 4.3789-3.5508 7.9297-7.9297 7.9297-4.375 0-7.9258-3.5508-7.9258-7.9297s3.5508-7.9258 7.9258-7.9258c4.3789 0 7.9297 3.5469 7.9297 7.9258"/>
 <path d="m435.62 539.69c0 6.7305-10.094 6.7305-10.094 0s10.094-6.7305 10.094 0"/>
 <path d="m405.9 539.69c0 5.7734-8.6602 5.7734-8.6602 0s8.6602-5.7734 8.6602 0"/>
 <path d="m376.24 539.7c0 3.8594-5.7891 3.8594-5.7891 0s5.7891-3.8594 5.7891 0"/>
 <path d="m642.8 451.5c0 4.375-3.5469 7.9219-7.918 7.9219-4.375 0-7.9219-3.5469-7.9219-7.9219s3.5469-7.918 7.9219-7.918c4.3711 0 7.918 3.543 7.918 7.918"/>
 <path d="m668.9 451.5c0 2.7891-2.2656 5.0625-5.0547 5.0625s-5.0469-2.2734-5.0469-5.0625c0-2.7734 2.2578-5.0469 5.0469-5.0469s5.0547 2.2656 5.0547 5.0469z"/>
 <path d="m697.18 451.5c0 5.7734-8.6602 5.7734-8.6602 0 0-5.7734 8.6602-5.7734 8.6602 0"/>
 <path d="m723.98 451.5c0 3.8711-5.8047 3.8711-5.8047 0s5.8047-3.8711 5.8047 0"/>
 <path d="m637.62 424.01c0 5.7734-8.6602 5.7734-8.6602 0 0-5.7734 8.6602-5.7734 8.6602 0"/>
 <path d="m664.42 424.01c0 3.8594-5.7891 3.8594-5.7891 0s5.7891-3.8594 5.7891 0"/>
 <path d="m645.25 567.19c0 6.1602-4.9922 11.156-11.152 11.156-6.1641 0-11.156-4.9961-11.156-11.156s4.9922-11.152 11.156-11.152c6.1602 0 11.152 4.9922 11.152 11.152"/>
 <path d="m645.24 623.3c0 6.1562-4.9883 11.145-11.145 11.145s-11.148-4.9883-11.148-11.145 4.9922-11.148 11.148-11.148 11.145 4.9922 11.145 11.148"/>
 <path d="m645.24 653.08c0 6.1562-4.9883 11.148-11.145 11.148s-11.148-4.9922-11.148-11.148 4.9922-11.145 11.148-11.145 11.145 4.9883 11.145 11.145"/>
 <path d="m558.28 653.08c0 6.1562-4.9883 11.148-11.145 11.148s-11.148-4.9922-11.148-11.148 4.9922-11.145 11.148-11.145 11.145 4.9883 11.145 11.145"/>
 <path d="m525.36 423.01c0 3.6992-2.9961 6.6992-6.6953 6.6992-3.6992 0-6.6953-3-6.6953-6.6992 0-3.6953 2.9961-6.6953 6.6953-6.6953 3.6992 0 6.6953 3 6.6953 6.6953"/>
 <path d="m526.25 452.07c0 4.1914-3.3945 7.5859-7.5859 7.5859-4.1914 0-7.5859-3.3945-7.5859-7.5859 0-4.1914 3.3945-7.5859 7.5859-7.5859 4.1914 0 7.5859 3.3945 7.5859 7.5859"/>
 <path d="m493.76 799.5c0 5.7812-8.6758 5.7812-8.6758 0 0-5.7852 8.6758-5.7852 8.6758 0"/>
 <path d="m464.04 799.5c0 4.8242-7.2422 4.8242-7.2422 0 0-4.8281 7.2422-4.8281 7.2422 0"/>
 <path d="m434.31 799.49c0 3.8594-5.7891 3.8594-5.7891 0s5.7891-3.8594 5.7891 0"/>
 <path d="m526.24 800.27c0 4.1875-3.3906 7.582-7.5781 7.582s-7.5781-3.3945-7.5781-7.582 3.3906-7.5781 7.5781-7.5781 7.5781 3.3906 7.5781 7.5781"/>
 <path d="m527.13 481.14c0 4.6719-3.7891 8.4609-8.4648 8.4609-4.6758 0-8.4648-3.7891-8.4648-8.4609 0-4.6758 3.7891-8.4648 8.4648-8.4648 4.6758 0 8.4648 3.7891 8.4648 8.4648"/>
 <path d="m528.04 509.91c0 5.1758-4.1953 9.3711-9.3711 9.3711-5.1758 0-9.3711-4.1953-9.3711-9.3711 0-5.1758 4.1953-9.3711 9.3711-9.3711 5.1758 0 9.3711 4.1953 9.3711 9.3711"/>
 <path d="m479.89 768.75c0-4.7539 3.8711-8.6367 8.6367-8.6367 4.7852 0 8.6602 3.8828 8.6602 8.6367 0 4.7969-3.875 8.6602-8.6602 8.6602-4.7656 0.007812-8.6367-3.8633-8.6367-8.6602z"/>
 <path d="m451.61 768.75c0-4.3516 3.5508-7.9141 7.9258-7.9141 4.3828 0 7.9258 3.5586 7.9258 7.9141 0 4.4141-3.543 7.957-7.9258 7.957-4.375 0-7.9258-3.543-7.9258-7.957z"/>
 <path d="m425.52 768.75c0-2.7578 2.2734-5.0312 5.0547-5.0312 2.7891 0 5.0391 2.2734 5.0391 5.0312 0 2.8047-2.2539 5.0625-5.0391 5.0625-2.7812 0-5.0547-2.2617-5.0547-5.0625z"/>
 <path d="m397.24 768.75c0-2.3711 1.9414-4.3086 4.332-4.3086 2.3867 0 4.3242 1.9336 4.3242 4.3086 0 2.4023-1.9336 4.3359-4.3242 4.3359-2.3867 0-4.332-1.9336-4.332-4.3359z"/>
 <path d="m373.35 765.87c1.6016 0 2.9023 1.2852 2.9023 2.8789 0 1.625-1.3008 2.9102-2.9023 2.9102-1.5859 0-2.8945-1.2852-2.8945-2.9102 0-1.5938 1.3086-2.8789 2.8945-2.8789z"/>
 <path d="m518.66 759.41c-5.1914 0-9.3711 4.1797-9.3711 9.3398 0 5.1992 4.1875 9.3711 9.3711 9.3711 5.168 0 9.3555-4.1797 9.3555-9.3711 0.007813-5.1641-4.1875-9.3398-9.3555-9.3398z"/>
 <path d="m528.91 539.27c0 5.6602-4.5859 10.246-10.246 10.246-5.6602 0-10.246-4.5859-10.246-10.246s4.5859-10.25 10.246-10.25c5.6602 0 10.246 4.5898 10.246 10.25"/>
 <path d="m497.19 595.82c0 4.7734-3.8711 8.6445-8.6445 8.6445-4.7773 0-8.6484-3.8711-8.6484-8.6445 0-4.7773 3.8711-8.6484 8.6484-8.6484 4.7734 0 8.6445 3.8711 8.6445 8.6484"/>
 <path d="m467.46 595.82c0 4.375-3.5508 7.9258-7.9297 7.9258-4.375 0-7.9258-3.5508-7.9258-7.9258 0-4.3789 3.5508-7.9297 7.9258-7.9297 4.3789 0 7.9297 3.5508 7.9297 7.9297"/>
 <path d="m435.62 595.82c0 6.7305-10.094 6.7305-10.094 0 0-6.7305 10.094-6.7305 10.094 0"/>
 <path d="m405.9 595.82c0 5.7734-8.6602 5.7734-8.6602 0 0-5.7734 8.6602-5.7734 8.6602 0"/>
 <path d="m376.24 595.82c0 3.8594-5.7891 3.8594-5.7891 0s5.7891-3.8594 5.7891 0"/>
 <path d="m518.66 585.13c-5.6758 0-10.254 4.6016-10.254 10.27 0 5.6367 4.5781 10.238 10.254 10.238 5.6523 0 10.246-4.6016 10.246-10.238 0.007813-5.6602-4.5938-10.27-10.246-10.27z"/>
 <path d="m529.82 568.33c0 6.1602-4.9961 11.156-11.156 11.156-6.1602 0-11.152-4.9961-11.152-11.156s4.9922-11.152 11.152-11.152c6.1602 0 11.156 4.9922 11.156 11.152"/>
 <path d="m529.8 625.73c0 6.1523-4.9883 11.141-11.141 11.141-6.1523 0-11.141-4.9883-11.141-11.141 0-6.1523 4.9883-11.141 11.141-11.141 6.1523 0 11.141 4.9883 11.141 11.141"/>
 <path d="m500.05 654.36c0 5.1719-4.1914 9.3633-9.3633 9.3633s-9.3633-4.1914-9.3633-9.3633 4.1914-9.3633 9.3633-9.3633 9.3633 4.1914 9.3633 9.3633"/>
 <path d="m470.34 654.35c0 4.7773-3.8711 8.6445-8.6445 8.6445-4.7734 0-8.6445-3.8672-8.6445-8.6445 0-4.7734 3.8711-8.6445 8.6445-8.6445 4.7734 0 8.6445 3.8711 8.6445 8.6445"/>
 <path d="m437.35 654.35c0 3.1914-2.582 5.7734-5.7734 5.7734-3.1875 0-5.7734-2.582-5.7734-5.7734 0-3.1875 2.5859-5.7734 5.7734-5.7734 3.1914 0 5.7734 2.5859 5.7734 5.7734"/>
 <path d="m407.63 654.35c0 6.7305-10.098 6.7305-10.098 0 0-6.7305 10.098-6.7305 10.098 0"/>
 <path d="m377.91 654.35c0 5.7734-8.6602 5.7734-8.6602 0 0-5.7734 8.6602-5.7734 8.6602 0"/>
 <path d="m348.19 654.35c0 4.8281-7.2422 4.8281-7.2422 0 0-4.8242 7.2422-4.8242 7.2422 0"/>
 <path d="m318.46 654.36c0 3.8516-5.7734 3.8516-5.7734 0 0-3.8477 5.7734-3.8477 5.7734 0"/>
 <path d="m288.19 654.34c0 3.1953-4.793 3.1953-4.793 0 0-3.1914 4.793-3.1914 4.793 0"/>
 <path d="m258.12 654.36c0 2.8203-4.2344 2.8203-4.2344 0s4.2344-2.8203 4.2344 0"/>
 <path d="m529.81 654.35c0 6.1562-4.9922 11.148-11.148 11.148s-11.148-4.9922-11.148-11.148 4.9922-11.145 11.148-11.145 11.148 4.9883 11.148 11.145"/>
 <path d="m500.04 682.99c0 5.1641-4.1875 9.3555-9.3555 9.3555s-9.3555-4.1914-9.3555-9.3555c0-5.168 4.1875-9.3555 9.3555-9.3555s9.3555 4.1875 9.3555 9.3555"/>
 <path d="m470.34 682.99c0 4.7734-3.8711 8.6445-8.6445 8.6445-4.7734 0-8.6445-3.8711-8.6445-8.6445 0-4.7773 3.8711-8.6484 8.6445-8.6484 4.7734 0 8.6445 3.8711 8.6445 8.6484"/>
 <path d="m425.8 682.99c0-3.1875 2.5938-5.7578 5.7891-5.7578 3.1758 0 5.7578 2.5703 5.7578 5.7578 0 3.2031-2.5859 5.7734-5.7578 5.7734-3.1953 0-5.7891-2.5703-5.7891-5.7734z"/>
 <path d="m397.53 683c0-2.7891 2.2578-5.0625 5.0469-5.0625s5.0547 2.2578 5.0547 5.0625c-0.007812 2.7734-2.2656 5.0312-5.0547 5.0312-2.7891 0.003906-5.0469-2.25-5.0469-5.0312z"/>
 <path d="m377.91 683c0 5.7773-8.6602 5.7773-8.6602 0 0-5.7734 8.6602-5.7734 8.6602 0"/>
 <path d="m348.19 682.99c0 4.8242-7.2422 4.8242-7.2422 0 0-4.8281 7.2422-4.8281 7.2422 0"/>
 <path d="m318.46 683c0 3.8477-5.7734 3.8477-5.7734 0 0-3.8516 5.7734-3.8516 5.7734 0"/>
 <path d="m288.19 683c0 3.1914-4.793 3.1914-4.793 0 0-3.1953 4.793-3.1953 4.793 0"/>
 <path d="m258.12 683c0 2.8203-4.2344 2.8203-4.2344 0 0-2.8242 4.2344-2.8242 4.2344 0"/>
 <path d="m781.95 713.92c0 2.8203-4.2344 2.8203-4.2344 0 0-2.8203 4.2344-2.8203 4.2344 0"/>
 <path d="m781.94 742.54c0 2.8125-4.2188 2.8125-4.2188 0 0-2.8086 4.2188-2.8086 4.2188 0"/>
 <path d="m528.01 712.78c0 5.168-4.1875 9.3555-9.3555 9.3555s-9.3555-4.1875-9.3555-9.3555c0-5.168 4.1875-9.3555 9.3555-9.3555s9.3555 4.1875 9.3555 9.3555"/>
 <path d="m498.97 712.78c0 4.7734-3.8711 8.6445-8.6445 8.6445-4.7734 0-8.6445-3.8711-8.6445-8.6445 0-4.7734 3.8711-8.6445 8.6445-8.6445 4.7734 0 8.6445 3.8711 8.6445 8.6445"/>
 <path d="m465.99 712.78c0 3.1875-2.5859 5.7734-5.7734 5.7734-3.1914 0-5.7734-2.5859-5.7734-5.7734s2.582-5.7734 5.7734-5.7734c3.1875 0 5.7734 2.5859 5.7734 5.7734"/>
 <path d="m436.27 712.78c0 6.7422-10.113 6.7422-10.113 0 0-6.7422 10.113-6.7422 10.113 0"/>
 <path d="m406.55 712.78c0 5.7852-8.6758 5.7852-8.6758 0s8.6758-5.7852 8.6758 0"/>
 <path d="m376.82 712.78c0 4.8164-7.2227 4.8164-7.2227 0s7.2227-4.8164 7.2227 0"/>
 <path d="m347.09 712.78c0 3.8594-5.7891 3.8594-5.7891 0s5.7891-3.8594 5.7891 0"/>
 <path d="m316.82 712.78c0 3.1836-4.7773 3.1836-4.7773 0s4.7773-3.1836 4.7773 0"/>
 <path d="m286.76 712.78c0 2.8125-4.2148 2.8125-4.2148 0s4.2148-2.8125 4.2148 0"/>
 <path d="m528.02 741.4c0 5.1719-4.1914 9.3633-9.3633 9.3633s-9.3633-4.1914-9.3633-9.3633 4.1914-9.3633 9.3633-9.3633 9.3633 4.1914 9.3633 9.3633"/>
 <path d="m498.97 741.41c0 4.7773-3.8711 8.6445-8.6445 8.6445-4.7734 0-8.6445-3.8672-8.6445-8.6445 0-4.7734 3.8711-8.6445 8.6445-8.6445 4.7734 0 8.6445 3.8711 8.6445 8.6445"/>
 <path d="m465.99 741.41c0 3.1914-2.5859 5.7734-5.7734 5.7734-3.1914 0-5.7734-2.582-5.7734-5.7734 0-3.1875 2.582-5.7734 5.7734-5.7734 3.1875 0 5.7734 2.5859 5.7734 5.7734"/>
 <path d="m436.27 741.41c0 6.7422-10.113 6.7422-10.113 0 0-6.7383 10.113-6.7383 10.113 0"/>
 <path d="m406.55 741.41c0 5.7852-8.6758 5.7852-8.6758 0 0-5.7812 8.6758-5.7812 8.6758 0"/>
 <path d="m376.82 741.41c0 4.8164-7.2227 4.8164-7.2227 0s7.2227-4.8164 7.2227 0"/>
 <path d="m347.09 741.41c0 3.8594-5.7891 3.8594-5.7891 0s5.7891-3.8594 5.7891 0"/>
 <path d="m316.83 741.42c0 3.1953-4.793 3.1953-4.793 0 0-3.1953 4.793-3.1953 4.793 0"/>
 <path d="m529.82 683c0 6.1602-4.9961 11.152-11.156 11.152-6.1602 0-11.152-4.9922-11.152-11.152 0-6.1641 4.9922-11.156 11.152-11.156 6.1602 0 11.156 4.9922 11.156 11.156"/>
</svg>
