<svg width="1920" height="1080" viewBox="0 0 1920 1080" fill="none" xmlns="http://www.w3.org/2000/svg">
<g clip-path="url(#clip0_8_2)">
<path d="M1915.2 0H4.8C2.14903 0 0 1.20883 0 2.7V1077.3C0 1078.79 2.14903 1080 4.8 1080H1915.2C1917.85 1080 1920 1078.79 1920 1077.3V2.7C1920 1.20883 1917.85 0 1915.2 0Z" fill="#EAEAEA"/>
<path d="M993.558 372.697L980.23 365.317V426.511L993.558 433.984V372.697Z" fill="black"/>
<path d="M1020.4 387.781L1007.06 380.324V441.597L1020.4 448.993V387.781Z" fill="black"/>
<path d="M1046.99 402.79L1033.67 395.409V456.604L1046.99 464V402.79Z" fill="black"/>
<path d="M818.954 461.867L832.281 469.263V425.5L818.954 432.88V461.867Z" fill="black"/>
<path d="M805.612 454.406V440.504L793 447.486L805.612 454.406Z" fill="black"/>
<path d="M1127.28 447.653L1114.02 440.257V455.111L1100.68 462.491V432.876L1087.43 425.496V469.721L1074.09 477.117V417.794L1060.5 410.168V471.455L1072.47 478.206V602.187L1071.81 602.571L1060.5 596.295V608.938L1047 616.319V588.438L1033.67 580.812V623.79L1020.41 631.401V573.185L1007.07 565.574V638.799L993.566 646.179V557.949L980.239 550.322V653.559L966.896 661.262V542.709L960.383 538.535L960.637 415.425L966.896 419.123V357.928L959.907 354L954.283 357.054V418.494L940.797 425.875V364.68L927.454 372.061V433.269L914.111 440.726V379.685L900.863 387.066V448.107L887.282 455.503V394.537L874.018 402.148V462.957L860.675 470.583V409.526L845.791 418.011V476.626L847.824 477.731L848.317 602.556L860.675 609.554V595.651L874.018 588.025V617.18L887.282 624.637V580.399L900.863 572.542V632.019L914.111 639.645V564.931L927.454 557.304V647.024L940.797 654.497V549.601L954.283 541.99V662.108L960.383 665.576V665.33V727L1127.52 633.751L1127.76 447.636L1127.28 447.653Z" fill="black"/>
</g>
<defs>
<clipPath id="clip0_8_2">
<rect width="1920" height="1080" fill="white"/>
</clipPath>
</defs>
</svg>
