<?xml version="1.0" encoding="utf-8"?><svg xmlns="http://www.w3.org/2000/svg" xmlns:xlink="http://www.w3.org/1999/xlink" xml:space="preserve" x="0" y="0" version="1.1" viewBox="0 0 800 800"><g><polyline fill="none" stroke="#000" stroke-linecap="round" stroke-linejoin="round" stroke-miterlimit="10" stroke-width="9.841" points="425,721.8 674.1,602.3 674.1,602.3"/><polyline fill="none" stroke="#000" stroke-linecap="round" stroke-linejoin="round" stroke-miterlimit="10" stroke-width="9.841" points="425,694.7 717.5,554.4 717.5,554.4"/><line x1="727.8" x2="425" y1="522.4" y2="667.6" fill="none" stroke="#000" stroke-linecap="round" stroke-linejoin="round" stroke-miterlimit="10" stroke-width="9.841"/><line x1="731.5" x2="425" y1="493.5" y2="640.6" fill="none" stroke="#000" stroke-linecap="round" stroke-linejoin="round" stroke-miterlimit="10" stroke-width="9.841"/><line x1="732.8" x2="425" y1="465.8" y2="613.5" fill="none" stroke="#000" stroke-linecap="round" stroke-linejoin="round" stroke-miterlimit="10" stroke-width="9.841"/><line x1="733.2" x2="425" y1="438.5" y2="586.4" fill="none" stroke="#000" stroke-linecap="round" stroke-linejoin="round" stroke-miterlimit="10" stroke-width="9.841"/><line x1="733.3" x2="425" y1="411.4" y2="559.3" fill="none" stroke="#000" stroke-linecap="round" stroke-linejoin="round" stroke-miterlimit="10" stroke-width="9.841"/><line x1="733.3" x2="425" y1="384.3" y2="532.2" fill="none" stroke="#000" stroke-linecap="round" stroke-linejoin="round" stroke-miterlimit="10" stroke-width="9.841"/><line x1="733.2" x2="591.7" y1="357.3" y2="425.2" fill="none" stroke="#000" stroke-linecap="round" stroke-linejoin="round" stroke-miterlimit="10" stroke-width="9.841"/><line x1="545.9" x2="425" y1="447.2" y2="505.2" fill="none" stroke="#000" stroke-linecap="round" stroke-linejoin="round" stroke-miterlimit="10" stroke-width="9.841"/><line x1="732.7" x2="591.7" y1="330.5" y2="398.1" fill="none" stroke="#000" stroke-linecap="round" stroke-linejoin="round" stroke-miterlimit="10" stroke-width="9.841"/><line x1="541.7" x2="425" y1="422.1" y2="478.1" fill="none" stroke="#000" stroke-linecap="round" stroke-linejoin="round" stroke-miterlimit="10" stroke-width="9.841"/><line x1="731.3" x2="591.7" y1="304.1" y2="371.1" fill="none" stroke="#000" stroke-linecap="round" stroke-linejoin="round" stroke-miterlimit="10" stroke-width="9.841"/><line x1="541.7" x2="425" y1="395" y2="451" fill="none" stroke="#000" stroke-linecap="round" stroke-linejoin="round" stroke-miterlimit="10" stroke-width="9.841"/><line x1="728" x2="591.7" y1="278.6" y2="344" fill="none" stroke="#000" stroke-linecap="round" stroke-linejoin="round" stroke-miterlimit="10" stroke-width="9.841"/><line x1="541.7" x2="425" y1="368" y2="423.9" fill="none" stroke="#000" stroke-linecap="round" stroke-linejoin="round" stroke-miterlimit="10" stroke-width="9.841"/></g><path d="M375,730.1V415.4l-299.9-150c-8.4,30-8.4,69.5-8.4,132.6v3.9c0,84.2,0,126.2,19.9,160.1	c19.9,33.8,55.8,52.6,127.5,90.3l66.7,35C323.8,709.9,351.1,724.2,375,730.1z"/><g><path d="M701.3,221.4l-133.9,66.9l-13.5-7.7l-25.2-14.4l-25.2-14.4l-25.2-14.4L453.2,223L428,208.6l-25.2-14.4l-25.2-14.4h0 l-25.2-14.4L327.2,151L302,136.6h0l-25.2-14.4l-6.8-3.9l10.7-5.6c45.5-23.9,73.4-38.5,98.3-43.8c0,0,0,0,0,0c7.1-1.5,14-2.3,21-2.3 c9.4,0,18.5,1.4,28.4,4.1c9.4,2.6,19.4,6.5,30.7,11.5c8.3,3.8,17.3,8.2,27.3,13.3c8.1,4.1,16.9,8.7,26.5,13.7h0 c2.1,1.1,4.3,2.2,6.5,3.4l19.8,10.4l26.3,13.8l20.5,10.8c2,1,3.9,2.1,5.8,3.1c9.4,4.9,18.1,9.5,26.2,13.9c9.3,5,17.9,9.7,25.7,14.1 c9,5.1,17.1,10,24.4,14.8c0,0,0,0,0,0c8.2,5.4,15.3,10.8,21.6,16.3C694,213.6,697.8,217.4,701.3,221.4z"/><path d="M513.7,315.2L400,372l-10.9-5.5l-27-13.5l-27-13.5l-27-13.5l-27-13.5l-26.9-13.5l-27-13.5l-27-13.5l-26.9-13.5l-27-13.5 l-27-13.5l-20.8-10.4c4.2-4.7,8.8-9.2,14-13.6c21.8-18.3,53.7-35,101.4-60.1l3.4-1.8l6.6,3.8l25.2,14.4l25.2,14.4l25.2,14.4 l25.2,14.4l25.2,14.4l25.2,14.4h0l25.2,14.4l25.2,14.4l25.2,14.4l25.2,14.4l25.2,14.4L513.7,315.2z"/></g></svg>