<?xml version="1.0" encoding="utf-8"?><svg xmlns="http://www.w3.org/2000/svg" xmlns:xlink="http://www.w3.org/1999/xlink" xml:space="preserve" x="0" y="0" version="1.1" viewBox="0 0 800 800"><path d="M733.3,398v13.4c0,9.6,0,18.6-0.1,27.1c-0.1,9.7-0.2,18.8-0.4,27.3c-0.3,10-0.7,19.2-1.4,27.7c-0.8,10.6-2,20.1-3.7,28.8	c-2.3,11.9-5.6,22.4-10.3,32h0c-1.2,2.6-2.6,5.1-4.1,7.6c-9.1,15.5-21.6,27.8-39.3,40.3h0c-21,14.7-49.3,29.6-88.2,50l-66.7,35	c-43.1,22.6-70.3,36.9-94.3,42.9V415.5l116.7-58.3v76.2c0,5.1,1.5,9.9,4.2,13.9c4.5,6.7,12.1,11.1,20.8,11.1c13.8,0,25-11.2,25-25	V332.1L725,265.5c1.2,4.2,2.2,8.5,3,13.1c1.5,7.8,2.5,16.2,3.3,25.5c0.7,8.1,1.1,16.9,1.4,26.4c0.3,8.3,0.4,17.2,0.5,26.8	c0.1,8.5,0.1,17.5,0.1,27C733.3,388.8,733.3,393.3,733.3,398z"/><path d="M375,730.1V415.4l-299.9-150c-8.4,30-8.4,69.5-8.4,132.6v3.9c0,84.2,0,126.2,19.9,160.1	c19.9,33.8,55.8,52.6,127.5,90.3l66.7,35C323.8,709.9,351.1,724.2,375,730.1z"/><g><g><line x1="691.6" x2="411.8" y1="225.3" y2="66.4" fill="none" stroke="#000" stroke-linecap="round" stroke-linejoin="round" stroke-miterlimit="10" stroke-width="9.841"/><line x1="665.3" x2="369.4" y1="238.4" y2="70.4" fill="none" stroke="#000" stroke-linecap="round" stroke-linejoin="round" stroke-miterlimit="10" stroke-width="9.841"/><line x1="639" x2="340" y1="251.6" y2="81.8" fill="none" stroke="#000" stroke-linecap="round" stroke-linejoin="round" stroke-miterlimit="10" stroke-width="9.841"/><line x1="612.7" x2="313.4" y1="264.7" y2="94.8" fill="none" stroke="#000" stroke-linecap="round" stroke-linejoin="round" stroke-miterlimit="10" stroke-width="9.841"/><line x1="586.4" x2="287.5" y1="277.9" y2="108.2" fill="none" stroke="#000" stroke-linecap="round" stroke-linejoin="round" stroke-miterlimit="10" stroke-width="9.841"/></g><g><line x1="507.5" x2="210.4" y1="317.3" y2="148.6" fill="none" stroke="#000" stroke-linecap="round" stroke-linejoin="round" stroke-miterlimit="10" stroke-width="9.841"/><line x1="481.2" x2="184.8" y1="330.4" y2="162.1" fill="none" stroke="#000" stroke-linecap="round" stroke-linejoin="round" stroke-miterlimit="10" stroke-width="9.841"/><line x1="454.9" x2="159.6" y1="343.6" y2="175.9" fill="none" stroke="#000" stroke-linecap="round" stroke-linejoin="round" stroke-miterlimit="10" stroke-width="9.841"/><line x1="428.6" x2="135.5" y1="356.7" y2="190.3" fill="none" stroke="#000" stroke-linecap="round" stroke-linejoin="round" stroke-miterlimit="10" stroke-width="9.841"/><line x1="402.4" x2="113.7" y1="369.9" y2="206" fill="none" stroke="#000" stroke-linecap="round" stroke-linejoin="round" stroke-miterlimit="10" stroke-width="9.841"/></g></g></svg>