<?xml version="1.0" encoding="utf-8"?><svg xmlns="http://www.w3.org/2000/svg" xmlns:xlink="http://www.w3.org/1999/xlink" xml:space="preserve" x="0" y="0" version="1.1" viewBox="0 0 800 800"><path d="M733.3,398v13.4c0,9.6,0,18.6-0.1,27.1c-0.1,9.7-0.2,18.8-0.4,27.3c-0.3,10-0.7,19.2-1.4,27.7c-0.8,10.6-2,20.1-3.7,28.8	c-2.3,11.9-5.6,22.4-10.3,32h0c-1.2,2.6-2.6,5.1-4.1,7.6c-9.1,15.5-21.6,27.8-39.3,40.3h0c-21,14.7-49.3,29.6-88.2,50l-66.7,35	c-43.1,22.6-70.3,36.9-94.3,42.9V415.5l116.7-58.3v76.2c0,5.1,1.5,9.9,4.2,13.9c4.5,6.7,12.1,11.1,20.8,11.1c13.8,0,25-11.2,25-25	V332.1L725,265.5c1.2,4.2,2.2,8.5,3,13.1c1.5,7.8,2.5,16.2,3.3,25.5c0.7,8.1,1.1,16.9,1.4,26.4c0.3,8.3,0.4,17.2,0.5,26.8	c0.1,8.5,0.1,17.5,0.1,27C733.3,388.8,733.3,393.3,733.3,398z"/><path d="M375,730.1V415.4l-299.9-150c-8.4,30-8.4,69.5-8.4,132.6v3.9c0,84.2,0,126.2,19.9,160.1	c19.9,33.8,55.8,52.6,127.5,90.3l66.7,35C323.8,709.9,351.1,724.2,375,730.1z"/><g><g><line x1="501.2" x2="389.1" y1="309.1" y2="367.6" fill="none" stroke="#000" stroke-linecap="round" stroke-linejoin="round" stroke-miterlimit="10" stroke-width="9.841"/><line x1="476" x2="362.1" y1="294.7" y2="354.1" fill="none" stroke="#000" stroke-linecap="round" stroke-linejoin="round" stroke-miterlimit="10" stroke-width="9.841"/><line x1="450.9" x2="335.1" y1="280.3" y2="340.6" fill="none" stroke="#000" stroke-linecap="round" stroke-linejoin="round" stroke-miterlimit="10" stroke-width="9.841"/><line x1="425.7" x2="308.2" y1="265.9" y2="327.1" fill="none" stroke="#000" stroke-linecap="round" stroke-linejoin="round" stroke-miterlimit="10" stroke-width="9.841"/><line x1="400.5" x2="281.2" y1="251.5" y2="313.7" fill="none" stroke="#000" stroke-linecap="round" stroke-linejoin="round" stroke-miterlimit="10" stroke-width="9.841"/><polyline fill="none" stroke="#000" stroke-linecap="round" stroke-linejoin="round" stroke-miterlimit="10" stroke-width="9.841" points="254.3,300.2 375.3,237.1 375.3,237.1"/><line x1="350.1" x2="227.3" y1="222.7" y2="286.7" fill="none" stroke="#000" stroke-linecap="round" stroke-linejoin="round" stroke-miterlimit="10" stroke-width="9.841"/><line x1="324.9" x2="200.4" y1="208.3" y2="273.2" fill="none" stroke="#000" stroke-linecap="round" stroke-linejoin="round" stroke-miterlimit="10" stroke-width="9.841"/><line x1="299.7" x2="173.4" y1="193.9" y2="259.8" fill="none" stroke="#000" stroke-linecap="round" stroke-linejoin="round" stroke-miterlimit="10" stroke-width="9.841"/><line x1="274.5" x2="146.4" y1="179.5" y2="246.3" fill="none" stroke="#000" stroke-linecap="round" stroke-linejoin="round" stroke-miterlimit="10" stroke-width="9.841"/><line x1="249.3" x2="119.5" y1="165.1" y2="232.8" fill="none" stroke="#000" stroke-linecap="round" stroke-linejoin="round" stroke-miterlimit="10" stroke-width="9.841"/><line x1="224.1" x2="112.7" y1="150.7" y2="208.8" fill="none" stroke="#000" stroke-linecap="round" stroke-linejoin="round" stroke-miterlimit="10" stroke-width="9.841"/></g></g><g><path d="M701.3,221.4l-133.9,66.9l-13.5-7.7l-25.2-14.4l-25.2-14.4l-25.2-14.4L453.2,223L428,208.6l-25.2-14.4l-25.2-14.4h0 l-25.2-14.4L327.2,151L302,136.6h0l-25.2-14.4l-6.8-3.9l10.7-5.6c45.5-23.9,73.4-38.5,98.3-43.8c0,0,0,0,0,0c7.1-1.5,14-2.3,21-2.3 c9.4,0,18.5,1.4,28.4,4.1c9.4,2.6,19.4,6.5,30.7,11.5c8.3,3.8,17.3,8.2,27.3,13.3c8.1,4.1,16.9,8.7,26.5,13.7h0 c2.1,1.1,4.3,2.2,6.5,3.4l19.8,10.4l26.3,13.8l20.5,10.8c2,1,3.9,2.1,5.8,3.1c9.4,4.9,18.1,9.5,26.2,13.9c9.3,5,17.9,9.7,25.7,14.1 c9,5.1,17.1,10,24.4,14.8c0,0,0,0,0,0c8.2,5.4,15.3,10.8,21.6,16.3C694,213.6,697.8,217.4,701.3,221.4z"/></g></svg>