<?xml version="1.0" encoding="utf-8"?><svg xmlns="http://www.w3.org/2000/svg" xmlns:xlink="http://www.w3.org/1999/xlink" xml:space="preserve" x="0" y="0" version="1.1" viewBox="0 0 800 800"><path d="M733.3,398v13.4c0,9.6,0,18.6-0.1,27.1c-0.1,9.7-0.2,18.8-0.4,27.3c-0.3,10-0.7,19.2-1.4,27.7c-0.8,10.6-2,20.1-3.7,28.8	c-2.3,11.9-5.6,22.4-10.3,32h0c-1.2,2.6-2.6,5.1-4.1,7.6c-9.1,15.5-21.6,27.8-39.3,40.3h0c-21,14.7-49.3,29.6-88.2,50l-66.7,35	c-43.1,22.6-70.3,36.9-94.3,42.9V415.5l116.7-58.3v76.2c0,5.1,1.5,9.9,4.2,13.9c4.5,6.7,12.1,11.1,20.8,11.1c13.8,0,25-11.2,25-25	V332.1L725,265.5c1.2,4.2,2.2,8.5,3,13.1c1.5,7.8,2.5,16.2,3.3,25.5c0.7,8.1,1.1,16.9,1.4,26.4c0.3,8.3,0.4,17.2,0.5,26.8	c0.1,8.5,0.1,17.5,0.1,27C733.3,388.8,733.3,393.3,733.3,398z"/><g><polyline fill="none" stroke="#000" stroke-linecap="round" stroke-linejoin="round" stroke-miterlimit="10" stroke-width="9.841" points="92.5,571 92.5,571 375,720.2"/><line x1="375" x2="74.9" y1="692.6" y2="534.1" fill="none" stroke="#000" stroke-linecap="round" stroke-linejoin="round" stroke-miterlimit="10" stroke-width="9.841"/><line x1="375" x2="69.4" y1="665" y2="503.6" fill="none" stroke="#000" stroke-linecap="round" stroke-linejoin="round" stroke-miterlimit="10" stroke-width="9.841"/><line x1="375" x2="67.5" y1="637.4" y2="474.9" fill="none" stroke="#000" stroke-linecap="round" stroke-linejoin="round" stroke-miterlimit="10" stroke-width="9.841"/><line x1="375" x2="66.8" y1="609.8" y2="447" fill="none" stroke="#000" stroke-linecap="round" stroke-linejoin="round" stroke-miterlimit="10" stroke-width="9.841"/><line x1="375" x2="66.7" y1="582.2" y2="419.3" fill="none" stroke="#000" stroke-linecap="round" stroke-linejoin="round" stroke-miterlimit="10" stroke-width="9.841"/><line x1="375" x2="66.7" y1="554.6" y2="391.7" fill="none" stroke="#000" stroke-linecap="round" stroke-linejoin="round" stroke-miterlimit="10" stroke-width="9.841"/><line x1="375" x2="66.7" y1="527" y2="364.1" fill="none" stroke="#000" stroke-linecap="round" stroke-linejoin="round" stroke-miterlimit="10" stroke-width="9.841"/><line x1="375" x2="67.1" y1="499.3" y2="336.7" fill="none" stroke="#000" stroke-linecap="round" stroke-linejoin="round" stroke-miterlimit="10" stroke-width="9.841"/><line x1="375" x2="68.3" y1="471.7" y2="309.7" fill="none" stroke="#000" stroke-linecap="round" stroke-linejoin="round" stroke-miterlimit="10" stroke-width="9.841"/><line x1="375" x2="71.1" y1="444.1" y2="283.6" fill="none" stroke="#000" stroke-linecap="round" stroke-linejoin="round" stroke-miterlimit="10" stroke-width="9.841"/></g><g><path d="M701.3,221.4l-133.9,66.9l-13.5-7.7l-25.2-14.4l-25.2-14.4l-25.2-14.4L453.2,223L428,208.6l-25.2-14.4l-25.2-14.4h0 l-25.2-14.4L327.2,151L302,136.6h0l-25.2-14.4l-6.8-3.9l10.7-5.6c45.5-23.9,73.4-38.5,98.3-43.8c0,0,0,0,0,0c7.1-1.5,14-2.3,21-2.3 c9.4,0,18.5,1.4,28.4,4.1c9.4,2.6,19.4,6.5,30.7,11.5c8.3,3.8,17.3,8.2,27.3,13.3c8.1,4.1,16.9,8.7,26.5,13.7h0 c2.1,1.1,4.3,2.2,6.5,3.4l19.8,10.4l26.3,13.8l20.5,10.8c2,1,3.9,2.1,5.8,3.1c9.4,4.9,18.1,9.5,26.2,13.9c9.3,5,17.9,9.7,25.7,14.1 c9,5.1,17.1,10,24.4,14.8c0,0,0,0,0,0c8.2,5.4,15.3,10.8,21.6,16.3C694,213.6,697.8,217.4,701.3,221.4z"/><path d="M513.7,315.2L400,372l-10.9-5.5l-27-13.5l-27-13.5l-27-13.5l-27-13.5l-26.9-13.5l-27-13.5l-27-13.5l-26.9-13.5l-27-13.5 l-27-13.5l-20.8-10.4c4.2-4.7,8.8-9.2,14-13.6c21.8-18.3,53.7-35,101.4-60.1l3.4-1.8l6.6,3.8l25.2,14.4l25.2,14.4l25.2,14.4 l25.2,14.4l25.2,14.4l25.2,14.4h0l25.2,14.4l25.2,14.4l25.2,14.4l25.2,14.4l25.2,14.4L513.7,315.2z"/></g></svg>