<?xml version="1.0" encoding="utf-8"?><svg xmlns="http://www.w3.org/2000/svg" xmlns:xlink="http://www.w3.org/1999/xlink" xml:space="preserve" x="0" y="0" version="1.1" viewBox="0 0 800 800"><path d="M733.3,398v13.4c0,9.6,0,18.6-0.1,27.1c-0.1,9.7-0.2,18.8-0.4,27.3c-0.3,10-0.7,19.2-1.4,27.7c-0.8,10.6-2,20.1-3.7,28.8	c-2.3,11.9-5.6,22.4-10.3,32h0c-1.2,2.6-2.6,5.1-4.1,7.6c-9.1,15.5-21.6,27.8-39.3,40.3h0c-21,14.7-49.3,29.6-88.2,50l-66.7,35	c-43.1,22.6-70.3,36.9-94.3,42.9V415.5l116.7-58.3v76.2c0,5.1,1.5,9.9,4.2,13.9c4.5,6.7,12.1,11.1,20.8,11.1c13.8,0,25-11.2,25-25	V332.1L725,265.5c1.2,4.2,2.2,8.5,3,13.1c1.5,7.8,2.5,16.2,3.3,25.5c0.7,8.1,1.1,16.9,1.4,26.4c0.3,8.3,0.4,17.2,0.5,26.8	c0.1,8.5,0.1,17.5,0.1,27C733.3,388.8,733.3,393.3,733.3,398z"/><g><polyline fill="none" stroke="#000" stroke-linecap="round" stroke-linejoin="round" stroke-miterlimit="10" stroke-width="9.841" points="92.5,571 92.5,571 375,720.2"/><line x1="375" x2="74.9" y1="692.6" y2="534.1" fill="none" stroke="#000" stroke-linecap="round" stroke-linejoin="round" stroke-miterlimit="10" stroke-width="9.841"/><line x1="375" x2="69.4" y1="665" y2="503.6" fill="none" stroke="#000" stroke-linecap="round" stroke-linejoin="round" stroke-miterlimit="10" stroke-width="9.841"/><line x1="375" x2="67.5" y1="637.4" y2="474.9" fill="none" stroke="#000" stroke-linecap="round" stroke-linejoin="round" stroke-miterlimit="10" stroke-width="9.841"/><line x1="375" x2="66.8" y1="609.8" y2="447" fill="none" stroke="#000" stroke-linecap="round" stroke-linejoin="round" stroke-miterlimit="10" stroke-width="9.841"/><line x1="375" x2="66.7" y1="582.2" y2="419.3" fill="none" stroke="#000" stroke-linecap="round" stroke-linejoin="round" stroke-miterlimit="10" stroke-width="9.841"/><line x1="375" x2="66.7" y1="554.6" y2="391.7" fill="none" stroke="#000" stroke-linecap="round" stroke-linejoin="round" stroke-miterlimit="10" stroke-width="9.841"/><line x1="375" x2="66.7" y1="527" y2="364.1" fill="none" stroke="#000" stroke-linecap="round" stroke-linejoin="round" stroke-miterlimit="10" stroke-width="9.841"/><line x1="375" x2="67.1" y1="499.3" y2="336.7" fill="none" stroke="#000" stroke-linecap="round" stroke-linejoin="round" stroke-miterlimit="10" stroke-width="9.841"/><line x1="375" x2="68.3" y1="471.7" y2="309.7" fill="none" stroke="#000" stroke-linecap="round" stroke-linejoin="round" stroke-miterlimit="10" stroke-width="9.841"/><line x1="375" x2="71.1" y1="444.1" y2="283.6" fill="none" stroke="#000" stroke-linecap="round" stroke-linejoin="round" stroke-miterlimit="10" stroke-width="9.841"/></g><g><g><line x1="689.7" x2="554" y1="210.8" y2="281.6" fill="none" stroke="#000" stroke-linecap="round" stroke-linejoin="round" stroke-miterlimit="10" stroke-width="9.841"/><path fill="none" stroke="#000" stroke-linecap="round" stroke-linejoin="round" stroke-miterlimit="10" stroke-width="9.841" d="M528.8,267.2L668,194.6c0,0,0,0,0,0"/><line x1="643.7" x2="503.5" y1="179.8" y2="252.8" fill="none" stroke="#000" stroke-linecap="round" stroke-linejoin="round" stroke-miterlimit="10" stroke-width="9.841"/><line x1="618" x2="478.4" y1="165.6" y2="238.4" fill="none" stroke="#000" stroke-linecap="round" stroke-linejoin="round" stroke-miterlimit="10" stroke-width="9.841"/><line x1="591.7" x2="453.2" y1="151.8" y2="224" fill="none" stroke="#000" stroke-linecap="round" stroke-linejoin="round" stroke-miterlimit="10" stroke-width="9.841"/><line x1="565.4" x2="428" y1="138" y2="209.6" fill="none" stroke="#000" stroke-linecap="round" stroke-linejoin="round" stroke-miterlimit="10" stroke-width="9.841"/><line x1="539.1" x2="402.8" y1="124.2" y2="195.2" fill="none" stroke="#000" stroke-linecap="round" stroke-linejoin="round" stroke-miterlimit="10" stroke-width="9.841"/><polyline fill="none" stroke="#000" stroke-linecap="round" stroke-linejoin="round" stroke-miterlimit="10" stroke-width="9.841" points="377.6,180.8 377.6,180.8 512.8,110.3 512.8,110.3"/><line x1="486.3" x2="352.4" y1="96.6" y2="166.4" fill="none" stroke="#000" stroke-linecap="round" stroke-linejoin="round" stroke-miterlimit="10" stroke-width="9.841"/><line x1="459" x2="327.2" y1="83.3" y2="152" fill="none" stroke="#000" stroke-linecap="round" stroke-linejoin="round" stroke-miterlimit="10" stroke-width="9.841"/><polyline fill="none" stroke="#000" stroke-linecap="round" stroke-linejoin="round" stroke-miterlimit="10" stroke-width="9.841" points="302,137.6 302,137.6 428.4,71.8"/><path fill="none" stroke="#000" stroke-linecap="round" stroke-linejoin="round" stroke-miterlimit="10" stroke-width="9.841" d="M276.8,123.2L379,69.9c0,0,0,0,0,0"/></g></g><g><path d="M513.7,315.2L400,372l-10.9-5.5l-27-13.5l-27-13.5l-27-13.5l-27-13.5l-26.9-13.5l-27-13.5l-27-13.5l-26.9-13.5l-27-13.5 l-27-13.5l-20.8-10.4c4.2-4.7,8.8-9.2,14-13.6c21.8-18.3,53.7-35,101.4-60.1l3.4-1.8l6.6,3.8l25.2,14.4l25.2,14.4l25.2,14.4 l25.2,14.4l25.2,14.4l25.2,14.4h0l25.2,14.4l25.2,14.4l25.2,14.4l25.2,14.4l25.2,14.4L513.7,315.2z"/></g></svg>