<?xml version="1.0" encoding="utf-8"?><svg xmlns="http://www.w3.org/2000/svg" xmlns:xlink="http://www.w3.org/1999/xlink" xml:space="preserve" x="0" y="0" version="1.1" viewBox="0 0 800 800"><path d="M585.9,147.7l-66.7-35C460.7,82,431.5,66.7,400,66.7S339.3,82,280.7,112.7l-10.7,5.6l297.4,170l133.9-66.9	C679.8,197,645,178.7,585.9,147.7z"/><path d="M724.9,265.5l-133.3,66.6v101.2c0,13.8-11.2,25-25,25c-13.8,0-25-11.2-25-25v-76.2L425,415.4v314.7	c23.9-6,51.2-20.2,94.3-42.9l66.7-35c71.7-37.6,107.6-56.5,127.5-90.3c19.9-33.8,19.9-75.9,19.9-160.1V398	C733.3,335,733.3,295.5,724.9,265.5z"/><path d="M375,730.1V415.4l-299.9-150c-8.4,30-8.4,69.5-8.4,132.6v3.9c0,84.2,0,126.2,19.9,160.1c19.9,33.8,55.8,52.6,127.5,90.3	l66.7,35C323.8,709.9,351.1,724.2,375,730.1z"/><path d="M98.7,221.4L400,372l113.7-56.9L217.5,145.9l-3.4,1.8C155,178.7,120.2,197,98.7,221.4z"/></svg>