<?xml version="1.0" encoding="utf-8"?>
<!-- Generator: Adobe Illustrator 27.9.0, SVG Export Plug-In . SVG Version: 6.00 Build 0)  -->
<svg version="1.1" id="Layer_1" xmlns="http://www.w3.org/2000/svg" xmlns:xlink="http://www.w3.org/1999/xlink" x="0px" y="0px"
	 viewBox="0 0 800 800" style="enable-background:new 0 0 800 800;" xml:space="preserve">
<style type="text/css">
	.st0{fill:#FFFFFF;}
</style>
<g>
	<path d="M262.7,118.2l16.4-8.6c59-30.9,88.6-46.4,120.9-46.4c32.4,0,62,15.5,120.8,46.4l66.7,35c58.9,30.9,94.4,49.5,116.4,74.5
		l3,3.4l-139.6,69.8L262.7,118.2z"/>
	<path class="st0" d="M400,66.7c31.5,0,60.7,15.3,119.2,46l66.7,35c59.1,31,93.9,49.3,115.4,73.7l-133.9,66.9L270,118.3l10.7-5.6
		C339.3,82,368.5,66.7,400,66.7 M400,59.7c-33.2,0-63.1,15.6-122.5,46.8l-10.7,5.6l-11.3,5.9l11.1,6.3l297.4,170l3.3,1.9l3.4-1.7
		l133.9-66.9l8.1-4.1l-6-6.8c-22.4-25.5-58.2-44.2-117.4-75.3l-66.7-35C463.1,75.3,433.3,59.7,400,59.7L400,59.7z"/>
</g>
<g>
	<path d="M421.5,413.2l123.6-61.8v81.9c0,11.9,9.6,21.5,21.5,21.5s21.5-9.6,21.5-21.5V329.9l139-69.5l1.1,4.1
		c8.5,30.2,8.5,68.6,8.6,132l0,5.2c0,84.7,0,127.3-20.4,161.9c-20.5,34.8-56.7,53.8-128.9,91.6l-66.7,35
		c-44.8,23.6-71.3,37.2-95.1,43.2l-4.4,1.1V413.2z"/>
	<path class="st0" d="M724.9,265.5c8.4,30,8.4,69.5,8.5,132.5v3.8c0,84.2,0,126.3-19.9,160.1c-19.9,33.8-55.8,52.7-127.5,90.3
		l-66.7,35c-43.1,22.7-70.4,36.9-94.3,42.9V415.4l116.6-58.3v76.2c0,13.8,11.2,25,25,25c13.8,0,25-11.2,25-25V332.1L724.9,265.5
		 M729.4,255.4l-7.6,3.8l-133.3,66.6l-3.9,1.9v4.3v101.2c0,9.9-8.1,18-18,18s-18-8.1-18-18v-76.2v-11.3l-10.1,5.1l-116.6,58.3
		l-3.9,1.9v4.3v314.7v9l8.7-2.2c24.2-6.1,50.8-19.8,95.9-43.5l66.7-35c72.8-38.2,109.3-57.3,130.3-92.9
		c20.9-35.4,20.9-78.3,20.9-163.7V398l0-1.4c-0.1-63.8-0.2-102.3-8.8-133L729.4,255.4L729.4,255.4z"/>
</g>
<g>
	<path d="M374.2,733.5c-24.5-6-52.5-20.8-95-43.1L211.8,655c-71.8-37.8-107.8-56.7-128.2-91.3c-20.4-34.7-20.4-77.2-20.4-161.9V398
		c0-64.3,0-103.1,8.5-133.5l1.1-4.1l305.6,152.9v321.3L374.2,733.5z"/>
	<path class="st0" d="M75.1,265.4l299.9,150v314.7c-23.9-5.9-51.2-20.2-94.2-42.8l-66.7-35c-71.7-37.7-107.6-56.5-127.5-90.3
		c-19.9-33.9-19.9-75.9-19.9-160.1V398C66.7,334.9,66.7,295.4,75.1,265.4 M70.6,255.3l-2.3,8.2c-8.7,30.9-8.7,69.9-8.7,134.5v3.9
		c0,85.3,0,128.1,20.9,163.6c20.9,35.4,57.2,54.5,129.6,92.6l0.7,0.4l66.7,35c42.7,22.4,70.9,37.3,95.8,43.4l8.7,2.1v-8.9V415.4
		v-4.3l-3.9-1.9l-299.9-150L70.6,255.3L70.6,255.3z"/>
</g>
<g>
	<path d="M93.1,222.5l3-3.4c22-25,57.5-43.6,116.4-74.5l5.1-2.7l303.5,173.4L400,375.9L93.1,222.5z"/>
	<path class="st0" d="M217.5,145.9l296.2,169.2L400,372L98.7,221.4c21.5-24.4,56.3-42.7,115.4-73.7L217.5,145.9 M217.6,137.9
		l-3.4,1.8l-3.4,1.8c-59.2,31.1-94.9,49.8-117.4,75.3l-6,6.8l8.1,4.1l301.3,150.6l3.1,1.6l3.1-1.6l113.7-56.9l11.7-5.9l-11.4-6.5
		L221,139.8L217.6,137.9L217.6,137.9z"/>
</g>
</svg>
